<svg width="484" height="487" viewBox="0 0 484 487" fill="none" xmlns="http://www.w3.org/2000/svg">
<path d="M471.318 468.585C417.451 443.708 334.397 427.759 241.206 427.759C149.143 427.759 66.9712 443.325 13.0679 467.681C14.5801 473.374 18.3425 477.417 22.7561 477.417H461.898C466.08 477.427 469.661 473.788 471.318 468.585Z" fill="url(#paint0_linear_24_24227)"/>
<path d="M197.58 45.1167C197.853 45.6912 197.428 48.5716 193.516 50.8137C189.602 53.0558 175.357 59.1758 173.127 60.1678C170.898 61.1599 146.687 70.373 144.697 70.4528L197.58 45.1167Z" fill="url(#paint1_linear_24_24227)"/>
<path d="M185.477 54.437C185.477 54.437 183.058 80.1428 182.407 84.4382C181.759 88.7336 180.026 89.0368 179.938 88.8533C179.851 88.6698 175.676 59.0516 175.676 59.0516L185.477 54.437Z" fill="url(#paint2_linear_24_24227)"/>
<path d="M176.287 63.3815C175.971 61.15 173.972 59.8574 172.062 60.6101L175.676 59.0542L176.287 63.3815Z" fill="url(#paint3_linear_24_24227)"/>
<path d="M185.235 56.859C185.235 56.859 185.341 54.7711 186.513 54.2312L185.341 54.7711L185.235 56.859Z" fill="url(#paint4_linear_24_24227)"/>
<path d="M151.861 68.1841C151.861 68.1841 150.198 75.9078 149.975 77.086C149.751 78.2642 148.484 78.3653 148.484 78.3653L147.232 69.7666L151.864 68.1814L151.861 68.1841Z" fill="url(#paint5_linear_24_24227)"/>
<path d="M147.601 72.3257C147.434 71.1661 146.865 69.8309 145.143 70.3762L147.229 69.7671L147.601 72.3257Z" fill="url(#paint6_linear_24_24227)"/>
<path d="M189.644 61.8912L188.427 59.3459L187.21 56.8005C183.579 58.3432 179.992 61.822 179.992 61.822L180.6 63.0933L181.209 64.3647C181.209 64.3647 186.165 63.7503 189.644 61.8885V61.8912Z" fill="url(#paint7_linear_24_24227)"/>
<path d="M197.58 45.1167C197.306 44.5422 194.797 43.066 190.598 44.7124C186.399 46.3587 172.702 53.625 170.531 54.7394C168.36 55.8538 146.007 68.95 144.697 70.4528L197.58 45.1167Z" fill="url(#paint8_linear_24_24227)"/>
<path d="M182.737 48.7069C182.737 48.7069 161.213 34.4723 157.464 32.2834C153.714 30.0944 152.39 31.2567 152.478 31.4402C152.566 31.6238 173 53.4517 173 53.4517L182.737 48.7042V48.7069Z" fill="url(#paint9_linear_24_24227)"/>
<path d="M170.013 50.2622C171.551 51.9059 171.304 54.2783 169.521 55.2943L173 53.4538L170.013 50.2622Z" fill="url(#paint10_linear_24_24227)"/>
<path d="M180.699 47.377C180.699 47.377 182.389 48.6031 183.545 48.0286L182.391 48.6031L180.701 47.377H180.699Z" fill="url(#paint11_linear_24_24227)"/>
<path d="M150.955 66.2898C150.955 66.2898 143.902 62.7418 142.842 62.178C141.781 61.6141 140.912 62.5397 140.912 62.5397L146.817 68.9069L150.955 66.2898Z" fill="url(#paint12_linear_24_24227)"/>
<path d="M145.061 67.0139C145.855 67.873 146.541 69.1523 145.037 70.1523L146.82 68.9076L145.063 67.0139H145.061Z" fill="url(#paint13_linear_24_24227)"/>
<path d="M179.548 40.7834L180.765 43.3288L181.982 45.8741C178.503 47.7358 173.547 48.3502 173.547 48.3502L172.939 47.0789L172.33 45.8076C172.33 45.8076 175.918 42.3287 179.548 40.7861V40.7834Z" fill="url(#paint14_linear_24_24227)"/>
<path d="M156.387 51.5449L85.6458 93.9562L19.1511 133.827V131.83L85.6458 92.9269L156.387 51.5449Z" fill="url(#paint15_linear_24_24227)"/>
<path d="M165.006 72.3523L19.1511 159.909V157.792L165.006 72.3523Z" fill="url(#paint16_linear_24_24227)"/>
<path d="M428.965 135.861C428.516 136.449 425.311 137.54 420.913 134.672C416.514 131.805 402.618 120.286 400.41 118.502C398.198 116.717 375.811 96.5087 374.674 94.4873L428.968 135.861H428.965Z" fill="url(#paint17_linear_24_24227)"/>
<path d="M412.895 128.263C412.895 128.263 385.004 139.399 380.215 141.005C375.426 142.612 374.19 140.976 374.334 140.79C374.477 140.601 402.916 120.552 402.916 120.552L412.895 128.263Z" fill="url(#paint18_linear_24_24227)"/>
<path d="M398.759 123.48C400.901 121.969 401.178 119.208 399.386 117.628L402.916 120.549L398.759 123.48Z" fill="url(#paint19_linear_24_24227)"/>
<path d="M410.259 129.295C410.259 129.295 412.475 128.297 413.658 129.226L412.478 128.297L410.261 129.295H410.259Z" fill="url(#paint20_linear_24_24227)"/>
<path d="M380.821 100.709C380.821 100.709 371.944 103.087 370.605 103.478C369.266 103.871 368.49 102.611 368.49 102.611L376.723 96.7488L380.821 100.709Z" fill="url(#paint21_linear_24_24227)"/>
<path d="M374.273 98.4927C375.381 97.7028 376.465 96.4076 374.985 94.9102L376.723 96.748L374.273 98.4927Z" fill="url(#paint22_linear_24_24227)"/>
<path d="M407.391 136.54L409.379 133.928L411.367 131.316C407.843 128.372 402.339 126.5 402.339 126.5L401.345 127.805L400.351 129.111C400.351 129.111 403.62 133.923 407.391 136.54Z" fill="url(#paint23_linear_24_24227)"/>
<path d="M428.965 135.862C429.414 135.274 429.608 131.888 425.678 128.41C421.747 124.931 406.955 114.587 404.648 112.93C402.342 111.271 376.922 95.0492 374.671 94.488L428.965 135.862Z" fill="url(#paint24_linear_24_24227)"/>
<path d="M417.37 122.38C417.37 122.38 420.679 92.5114 420.953 87.4607C421.226 82.4126 419.323 81.6546 419.18 81.8435C419.036 82.0323 407.29 114.802 407.29 114.802L417.373 122.38H417.37Z" fill="url(#paint25_linear_24_24227)"/>
<path d="M409.007 110.012C408.122 112.48 405.536 113.483 403.538 112.174L407.29 114.802L409.007 110.012Z" fill="url(#paint26_linear_24_24227)"/>
<path d="M417.665 119.561C417.665 119.561 417.293 121.966 418.503 122.859L417.296 121.968L417.668 119.564L417.665 119.561Z" fill="url(#paint27_linear_24_24227)"/>
<path d="M382.301 98.7668C382.301 98.7668 382.229 89.5697 382.251 88.1733C382.272 86.777 380.853 86.3647 380.853 86.3647L377.395 95.8678L382.301 98.7668Z" fill="url(#paint28_linear_24_24227)"/>
<path d="M378.424 93.0381C377.959 94.3174 376.997 95.7084 375.163 94.6791L377.395 95.868L378.424 93.0407V93.0381Z" fill="url(#paint29_linear_24_24227)"/>
<path d="M423.879 114.869L421.891 117.481L419.903 120.093C416.129 117.475 412.863 112.664 412.863 112.664L413.857 111.358L414.851 110.052C414.851 110.052 420.355 111.925 423.879 114.869Z" fill="url(#paint30_linear_24_24227)"/>
<path d="M400.45 96.573L319.001 45.7465L289.988 27.6474L245.687 0H249.322L289.988 25.9877L320.064 45.2012L400.45 96.573Z" fill="url(#paint31_linear_24_24227)"/>
<path d="M383.486 116.552L289.988 58.2816L196.471 0H200.872L289.988 56.8826L383.486 116.552Z" fill="url(#paint32_linear_24_24227)"/>
<g opacity="0.8">
<path d="M265.661 101.922C265.661 101.922 261.653 102.613 261.653 105.273C261.653 107.933 262.99 112.614 262.99 112.614L264.326 117.627L268.228 120.968L269.668 118.984C269.668 118.984 271.233 117.577 272.674 117.401C277.646 116.803 277.683 115.343 277.683 115.343L282.023 112.946C282.023 112.946 283.692 109.606 282.023 108.603C280.354 107.6 275.531 104.592 275.103 104.592C274.675 104.592 272.339 98.2436 272.339 98.2436L267.441 91.5598C267.441 91.5598 263.992 94.3312 264.659 96.1185C265.326 97.9085 266.328 98.576 265.995 100.246L265.661 101.917V101.922Z" fill="url(#paint33_linear_24_24227)"/>
<path d="M362.582 193.893C362.582 232.695 346.907 267.819 321.533 293.296C319.67 285.625 319.386 281.061 316.678 276.721C313.887 272.25 299.069 250.97 299.069 250.97C299.069 250.97 278.366 249.563 275.565 248.443C272.767 247.334 258.222 246.212 258.222 246.212C258.222 246.212 248.716 238.368 246.476 229.964C244.235 221.57 245.875 225.655 252.065 216.527C254.913 212.341 252.065 216.527 260.462 206.452C268.86 196.367 266.57 197.976 268.393 196.276C270.479 194.329 283.304 196.367 283.304 196.367L288.067 195.43C288.067 195.43 289.836 195.247 299.63 189.095C309.42 182.933 321.727 187.975 332.923 186.01C344.109 184.055 346.908 182.933 356.974 179.858C358.92 179.268 360.416 178.738 361.707 178.188C362.287 183.353 362.582 188.587 362.582 193.896V193.893Z" fill="url(#paint34_linear_24_24227)"/>
<path d="M181.687 297.552C186.449 305.997 188.506 307.22 187.773 309.859C187.111 312.231 187.395 319.362 187.457 320.769C187.478 320.942 187.457 321.104 187.435 321.269C187.273 322.521 186.518 328.205 186.327 330.163C143.362 318.968 108.4 287.959 91.7394 247.479C92.0343 243.526 92.3798 238.922 92.4914 237.436C92.5127 237.13 92.4808 236.824 92.4091 236.518C92.1247 235.417 91.4417 232.209 91.6357 227.177C91.8908 220.842 87.8301 220.424 87.9603 218.815C88.0826 217.206 85.5074 213.243 85.9645 209.504C86.2914 206.876 83.6125 206.416 81.9941 206.376C81.9037 206.376 81.8213 206.365 81.739 206.355C81.3722 202.248 81.1888 198.094 81.1888 193.897C81.1888 151.275 100.111 113.077 130.006 87.2515C128.042 91.0309 126.513 95.5444 126.596 100.332C126.617 101.207 127.481 102.156 127.959 102.93C128.337 103.571 128.937 104.05 129.66 104.234C131.249 104.64 133.681 105.425 134.526 105.702C134.731 105.763 134.933 105.803 135.148 105.824L147.017 106.853C147.923 106.925 148.818 106.558 149.398 105.845L152.023 102.678C154.415 99.7945 156.095 100.957 156.951 102.047C157.469 102.71 158.242 103.106 159.087 103.127L176.197 103.515L180.685 103.851C182.872 104.002 184.796 105.359 185.692 107.364L187.271 110.848C188.389 113.335 188.076 116.237 186.447 118.428L177.693 130.296C177.488 130.562 177.347 130.857 177.254 131.171L173.01 145.605C172.46 147.48 170.19 148.222 168.633 147.03C166.087 145.065 162.821 141.743 161.559 137.027C161.213 135.682 159.127 136.182 158.109 136.509C157.713 136.652 157.285 136.692 156.868 136.642C154.944 136.376 149.366 135.44 146.233 133.219C144.035 131.66 142.334 129.176 141.276 127.341C140.524 126.027 138.874 125.569 137.55 126.282L124.879 133.046C123.678 133.679 123.117 135.062 123.526 136.357C123.872 137.458 124.26 138.599 124.666 139.74C124.961 140.554 125.623 141.187 126.447 141.461C127.861 141.929 130.162 142.927 131.302 143.437C131.741 143.631 132.126 143.937 132.411 144.334C133.561 145.903 136.687 150.172 138.018 152.004C138.701 152.951 139.432 154.174 140.075 155.294C140.888 156.709 142.733 157.119 144.085 156.201C145.927 154.938 148.747 153.523 152.26 153.35C158.744 153.033 152.26 153.35 156.719 158.536C160.769 163.252 156.871 167.297 156.119 167.989C156.047 168.061 155.975 168.111 155.906 168.172L140.027 180.04C139.57 181.098 134.683 181.447 129.583 186.418C124.494 191.378 118.599 190.942 115.599 195.024C112.596 199.11 109.471 197.836 107.111 200.607C104.74 203.368 100.097 198.894 99.619 205.323C99.13 211.751 100.942 210.15 99.9751 213.033C97.8996 219.206 101.328 221.895 101.827 222.467C102.327 223.036 101.838 223.821 103.241 228.64C104.655 233.459 102.712 232.592 104.565 238.042C106.417 243.492 111.007 243.899 112.423 245.202C113.829 246.505 114.236 247.494 117.34 249.247C120.444 251.011 125.698 245.407 129.453 246.476C133.197 247.566 135.182 246.659 137.556 247.088C139.357 247.423 139.581 245.917 144.986 246.67C155.776 248.178 151 247.282 155.776 248.178C160.559 249.085 163.185 245.162 166.372 250.593C169.569 256.032 182.739 269.072 183.624 271.844C184.499 274.605 185.812 271.466 184.499 274.605C183.186 277.732 183.582 279.381 182.657 284.709C181.722 290.025 176.927 289.118 181.69 297.563L181.687 297.552Z" fill="url(#paint35_linear_24_24227)"/>
<path d="M354.662 147.219C353.868 145.732 352.911 144.214 351.803 143.296C347.466 139.69 347.466 142.573 347.692 145.363C348.149 151.179 352.395 153.044 349.432 154.725C346.469 156.384 346.134 155.387 343.458 150.211C340.79 145.028 344.465 142.357 341.454 139.341C338.462 136.346 339.785 129.889 333.118 132.772C326.431 135.676 319.753 143.02 322.429 146.36C325.097 149.711 328.097 159.858 332.445 162.302C336.782 164.746 340.455 167.417 336.445 167.752C332.445 168.087 331.438 178.449 330.104 175.444C328.77 172.428 332.445 170.768 328.1 164.746C323.763 158.725 310.074 145.36 307.733 145.36C305.391 145.36 298.389 145.695 295.712 148.701C293.047 151.706 290.044 154.975 289.371 156.688C288.699 158.39 289.037 159.733 289.371 166.079C289.706 172.425 294.043 179.444 292.709 182.111C291.375 184.79 292.375 188.133 285.707 187.133C279.02 186.125 268.231 196.149 269.004 171.76C269.461 157.142 271.335 155.044 272.669 150.206C274.013 145.357 275.021 142.352 273.014 137.33C271 132.32 273.341 120.665 278.683 118.973C284.027 117.282 283.028 119.676 287.03 118.973C291.04 118.29 296.047 118.404 298.389 115.338C300.719 112.271 303.395 110.244 305.056 110.09C306.736 109.938 305.056 109.244 308.07 110.09C311.073 110.936 315.418 111.425 315.745 109.672C316.08 107.93 314.411 106.26 314.411 104.914C314.411 103.824 315.307 100.93 317.281 99.9221C316.476 94.991 314.289 88.7062 308.394 87.1689C298.327 84.5598 290.868 77.5515 289.005 76.5754C287.131 75.5966 287.131 71.1257 285.268 69.6283C283.405 68.1309 265.868 65.8888 265.868 65.8888L253.938 61.0402L240.573 54.3059C293.663 61.3541 337.412 98.047 354.665 147.209L354.662 147.219Z" fill="url(#paint36_linear_24_24227)"/>
</g>
<path d="M338.964 97.108C338.964 92.9961 335.632 89.6609 331.523 89.6609C327.414 89.6609 324.082 92.9961 324.082 97.108C324.082 97.249 324.087 97.3899 324.095 97.5309H324.082C324.082 103.201 331.523 112.085 331.523 112.085C331.523 112.085 338.964 103.199 338.964 97.5309H338.951C338.959 97.3899 338.964 97.249 338.964 97.108ZM331.523 101.933C328.86 101.933 326.702 99.773 326.702 97.108C326.702 94.443 328.86 92.2833 331.523 92.2833C334.186 92.2833 336.344 94.443 336.344 97.108C336.344 99.773 334.186 101.933 331.523 101.933Z" fill="url(#paint37_linear_24_24227)"/>
<path d="M280.293 218.373C280.293 214.261 276.961 210.926 272.852 210.926C268.744 210.926 265.411 214.261 265.411 218.373C265.411 218.514 265.416 218.655 265.424 218.796H265.411C265.411 224.466 272.852 233.35 272.852 233.35C272.852 233.35 280.293 224.464 280.293 218.796H280.28C280.288 218.655 280.293 218.514 280.293 218.373ZM272.852 223.198C270.189 223.198 268.031 221.038 268.031 218.373C268.031 215.708 270.189 213.548 272.852 213.548C275.515 213.548 277.673 215.708 277.673 218.373C277.673 221.038 275.515 223.198 272.852 223.198Z" fill="#518AFA"/>
<path d="M149.48 146.485C149.48 142.373 146.148 139.038 142.039 139.038C137.931 139.038 134.598 142.373 134.598 146.485C134.598 146.626 134.603 146.767 134.611 146.908H134.598C134.598 152.578 142.039 161.461 142.039 161.461C142.039 161.461 149.48 152.575 149.48 146.908H149.467C149.475 146.767 149.48 146.626 149.48 146.485ZM142.039 151.309C139.376 151.309 137.218 149.15 137.218 146.485C137.218 143.82 139.376 141.66 142.039 141.66C144.702 141.66 146.86 143.82 146.86 146.485C146.86 149.15 144.702 151.309 142.039 151.309Z" fill="#F55C2C"/>
<path d="M117.425 100.788C117.425 96.6765 114.092 93.3413 109.984 93.3413C105.875 93.3413 102.543 96.6765 102.543 100.788C102.543 100.929 102.548 101.07 102.556 101.211H102.543C102.543 106.882 109.984 115.765 109.984 115.765C109.984 115.765 117.425 106.879 117.425 101.211H117.412C117.42 101.07 117.425 100.929 117.425 100.788ZM109.984 105.613C107.321 105.613 105.163 103.453 105.163 100.788C105.163 98.1234 107.321 95.9637 109.984 95.9637C112.647 95.9637 114.805 98.1234 114.805 100.788C114.805 103.453 112.647 105.613 109.984 105.613Z" fill="url(#paint38_linear_24_24227)"/>
<path d="M324.098 439.561H212.752C208.218 439.561 204.537 435.878 204.537 431.34L204.537 150.962C204.537 146.425 208.218 142.741 212.752 142.741H324.098C328.632 142.741 332.312 146.425 332.312 150.962L332.312 431.343C332.312 435.88 328.632 439.564 324.098 439.564V439.561Z" fill="#587AA3"/>
<path d="M342.167 441.844H207.628C203.094 441.844 199.413 438.16 199.413 433.623L199.413 148.306C199.413 143.768 203.094 140.085 207.628 140.085H342.169C346.703 140.085 350.384 143.768 350.384 148.306L350.384 433.623C350.384 438.16 346.703 441.844 342.169 441.844H342.167Z" fill="url(#paint39_linear_24_24227)"/>
<g style="mix-blend-mode:screen" opacity="0.73">
<path d="M329.578 142.744H218.234C213.697 142.744 210.019 146.425 210.019 150.965V431.34C210.019 435.881 213.697 439.561 218.234 439.561H329.578C334.114 439.561 337.792 435.881 337.792 431.34V150.965C337.792 146.425 334.114 142.744 329.578 142.744Z" fill="#6BB0FF"/>
</g>
<path d="M232.652 299.41H255.052V404.866H232.652V299.41ZM253.5 300.966H234.209V403.307H253.5V300.966Z" fill="#323657"/>
<path d="M218.341 439.561H269.363C274.033 439.561 277.819 435.772 277.819 431.098V347.199C277.819 342.525 274.033 338.735 269.363 338.735H218.341C213.67 338.735 209.884 342.525 209.884 347.199V431.098C209.884 435.772 213.67 439.561 218.341 439.561Z" fill="url(#paint40_linear_24_24227)"/>
<path d="M231.985 302.572H255.722V297.8H231.985V302.572Z" fill="#323657"/>
<path style="mix-blend-mode:screen" opacity="0.97" d="M348.04 152.01V432.396C348.04 436.933 344.359 440.611 339.825 440.611H218.096C217.857 440.611 217.623 440.601 217.394 440.58C213.19 440.223 209.887 436.694 209.887 432.393V152.01C209.887 147.467 213.562 143.789 218.096 143.789H339.825C344.362 143.789 348.04 147.467 348.04 152.01Z" fill="url(#paint41_linear_24_24227)"/>
<path opacity="0.95" d="M393.755 219.295H278.101C271.68 219.295 266.474 224.504 266.474 230.931V346.677C266.474 353.104 271.68 358.313 278.101 358.313H393.755C400.177 358.313 405.382 353.104 405.382 346.677V230.931C405.382 224.504 400.177 219.295 393.755 219.295Z" fill="url(#paint42_linear_24_24227)"/>
<path d="M312.543 295.922H303.109V286.488H304.847V294.183H312.543V295.922Z" fill="#F24902"/>
<path d="M368.75 295.922H359.316V294.183H367.012V286.488H368.75V295.922Z" fill="#F24902"/>
<path d="M304.847 239.668H303.109V230.234H312.543V231.973H304.847V239.668Z" fill="#F24902"/>
<path d="M368.75 239.668H367.012V231.973H359.316V230.234H368.75V239.668Z" fill="#F24902"/>
<path d="M369.585 341.709C361.144 341.709 354.277 334.836 354.277 326.389C354.277 317.942 361.144 311.069 369.585 311.069C378.025 311.069 384.892 317.942 384.892 326.389C384.892 334.836 378.025 341.709 369.585 341.709ZM369.585 314.032C362.779 314.032 357.24 319.575 357.24 326.386C357.24 333.198 362.779 338.741 369.585 338.741C376.391 338.741 381.929 333.198 381.929 326.386C381.929 319.575 376.391 314.032 369.585 314.032Z" fill="#2CA401"/>
<path d="M368.607 332.419L361.652 325.458L363.749 323.363L368.607 328.224L375.421 321.408L377.515 323.504L368.607 332.419Z" fill="#2CA401"/>
<path d="M340.607 301.306H331.22V303.046H340.607V301.306Z" fill="#F24902"/>
<path d="M341.534 320.663H286.919V324.03H341.534V320.663Z" fill="#2CA401"/>
<path d="M312.811 328.749H286.919V332.119H312.811V328.749Z" fill="#2CA401"/>
<path d="M352.393 277.632H321.358V237.477H352.393V277.632ZM321.89 277.1H351.861V238.008H321.89V277.1Z" fill="#F24902"/>
<path d="M352.818 279.891V287.537H351.136C350.825 285.46 348.957 283.859 346.701 283.859C344.444 283.859 342.576 285.46 342.265 287.537H341.292C340.981 285.46 339.113 283.859 336.857 283.859C334.601 283.859 332.722 285.46 332.411 287.537H331.497C331.186 285.46 329.317 283.859 327.061 283.859C324.805 283.859 322.926 285.46 322.615 287.537H320.941V279.891H352.824H352.818Z" fill="#F24902"/>
<path opacity="0.95" d="M179.622 186.965H246.856C252.163 186.965 256.473 191.279 256.473 196.59V263.878C256.473 269.189 252.163 273.503 246.856 273.503H179.622C174.315 273.503 170.004 269.189 170.004 263.878V196.59C170.004 191.279 174.315 186.965 179.622 186.965Z" fill="url(#paint43_linear_24_24227)"/>
<path d="M194.847 244.287H187.042V236.48H188.48V242.845H194.847V244.287Z" fill="#F24902"/>
<path d="M241.344 244.287H233.541V242.845H239.906V236.48H241.344V244.287Z" fill="#F24902"/>
<path d="M188.48 204.03H187.042V196.227H194.847V197.665H188.48V204.03Z" fill="#F24902"/>
<path d="M241.344 204.03H239.906V197.665H233.541V196.227H241.344V204.03Z" fill="#F24902"/>
<path d="M230.682 253.399H190.649V256.187H230.682V253.399Z" fill="#F24902"/>
<path d="M218.04 260.088H190.648V262.875H218.04V260.088Z" fill="#F24902"/>
<path d="M209.366 214.779C209.366 215.096 209.299 215.373 209.169 215.607C209.039 215.841 208.858 216.035 208.632 216.189C208.404 216.343 208.141 216.46 207.838 216.54C207.535 216.62 207.216 216.66 206.878 216.66H203.304V209.322H207.383C207.638 209.322 207.869 209.378 208.074 209.487C208.281 209.596 208.457 209.739 208.6 209.915C208.744 210.09 208.855 210.29 208.935 210.513C209.015 210.737 209.055 210.965 209.055 211.2C209.055 211.551 208.967 211.88 208.792 212.192C208.616 212.503 208.353 212.737 208.002 212.894C208.422 213.019 208.754 213.239 208.999 213.556C209.243 213.872 209.366 214.279 209.366 214.777V214.779ZM204.997 210.769V212.287H206.66C206.846 212.287 207.011 212.226 207.157 212.101C207.301 211.976 207.375 211.785 207.375 211.521C207.375 211.279 207.311 211.093 207.184 210.963C207.056 210.832 206.905 210.766 206.724 210.766H204.999L204.997 210.769ZM207.641 214.439C207.641 214.213 207.575 214.019 207.444 213.859C207.314 213.7 207.149 213.622 206.95 213.622H204.999V215.224H206.878C207.099 215.224 207.282 215.152 207.426 215.006C207.569 214.862 207.644 214.67 207.644 214.436L207.641 214.439Z" fill="#F24902"/>
<path d="M213.519 215.216C213.809 215.216 214.054 215.154 214.253 215.035C214.452 214.915 214.614 214.753 214.739 214.553C214.864 214.354 214.952 214.125 215.002 213.867C215.053 213.609 215.079 213.346 215.079 213.077V209.327H216.772V213.077C216.772 213.588 216.708 214.064 216.581 214.503C216.453 214.944 216.257 215.33 215.991 215.66C215.725 215.99 215.388 216.25 214.978 216.439C214.569 216.628 214.08 216.724 213.517 216.724C212.953 216.724 212.432 216.623 212.021 216.423C211.609 216.224 211.271 215.958 211.013 215.623C210.756 215.287 210.567 214.902 210.445 214.46C210.325 214.019 210.264 213.559 210.264 213.075V209.324H211.957V213.075C211.957 213.357 211.983 213.625 212.039 213.88C212.095 214.136 212.183 214.362 212.308 214.564C212.432 214.763 212.592 214.923 212.789 215.04C212.985 215.157 213.227 215.216 213.517 215.216H213.519Z" fill="#F24902"/>
<path d="M219.22 209.324L220.801 212.694L222.401 209.324H224.251L221.638 214.16V216.66H219.956V214.138L217.384 209.322H219.223L219.22 209.324Z" fill="#F24902"/>
<path d="M198.241 223.213H196.011V229.062H194.319V223.213H192.078V221.724H198.244V223.213H198.241Z" fill="#F24902"/>
<path d="M199.065 229.064V221.726H200.758V229.064H199.065Z" fill="#F24902"/>
<path d="M201.741 225.334C201.741 224.892 201.823 224.453 201.988 224.014C202.153 223.578 202.395 223.187 202.711 222.842C203.027 222.496 203.413 222.219 203.867 222.004C204.322 221.791 204.837 221.685 205.416 221.685C206.105 221.685 206.703 221.834 207.208 222.129C207.713 222.424 208.09 222.812 208.337 223.286L207.035 224.195C206.953 224.004 206.846 223.842 206.721 223.714C206.594 223.586 206.456 223.483 206.301 223.403C206.15 223.323 205.996 223.267 205.836 223.238C205.677 223.206 205.523 223.193 205.371 223.193C205.047 223.193 204.765 223.259 204.524 223.389C204.282 223.52 204.082 223.69 203.926 223.895C203.766 224.102 203.649 224.336 203.575 224.597C203.498 224.86 203.461 225.124 203.461 225.392C203.461 225.682 203.506 225.961 203.593 226.23C203.684 226.499 203.811 226.735 203.981 226.943C204.149 227.15 204.353 227.312 204.59 227.435C204.827 227.554 205.095 227.616 205.39 227.616C205.541 227.616 205.698 227.597 205.86 227.56C206.022 227.523 206.177 227.464 206.325 227.384C206.474 227.304 206.61 227.201 206.735 227.073C206.86 226.945 206.958 226.788 207.035 226.602L208.42 227.419C208.308 227.687 208.146 227.93 207.928 228.142C207.71 228.355 207.463 228.536 207.178 228.68C206.897 228.823 206.596 228.935 206.28 229.009C205.964 229.084 205.653 229.124 205.35 229.124C204.819 229.124 204.332 229.015 203.888 228.799C203.445 228.584 203.062 228.294 202.743 227.935C202.424 227.576 202.174 227.169 201.999 226.714C201.823 226.259 201.736 225.799 201.736 225.328L201.741 225.334Z" fill="#F24902"/>
<path d="M209.27 229.064V221.726H210.963V224.889L213.647 221.726H215.547L212.799 225.003L215.733 229.064H213.801L211.725 226.109L210.96 226.905V229.064H209.267H209.27Z" fill="#F24902"/>
<path d="M221.434 227.575V229.064H216.281V221.726H221.341V223.216H217.974V224.641H220.865V226.016H217.974V227.578H221.434V227.575Z" fill="#F24902"/>
<path d="M228.054 223.213H225.824V229.062H224.131V223.213H221.891V221.724H228.056V223.213H228.054Z" fill="#F24902"/>
<path d="M233.279 223.876C233.257 223.849 233.186 223.796 233.061 223.722C232.936 223.645 232.782 223.567 232.596 223.485C232.41 223.403 232.208 223.331 231.987 223.267C231.766 223.203 231.546 223.174 231.325 223.174C230.719 223.174 230.416 223.376 230.416 223.783C230.416 223.908 230.448 224.012 230.515 224.094C230.581 224.177 230.677 224.251 230.804 224.317C230.932 224.384 231.091 224.442 231.285 224.498C231.477 224.554 231.703 224.615 231.958 224.685C232.309 224.78 232.625 224.887 232.909 225.001C233.191 225.115 233.43 225.256 233.627 225.424C233.823 225.591 233.975 225.799 234.081 226.038C234.187 226.28 234.241 226.568 234.241 226.905C234.241 227.318 234.164 227.669 234.007 227.953C233.853 228.241 233.648 228.469 233.393 228.645C233.138 228.82 232.845 228.948 232.516 229.028C232.186 229.108 231.843 229.147 231.493 229.147C231.224 229.147 230.948 229.126 230.666 229.086C230.384 229.046 230.108 228.985 229.84 228.905C229.571 228.826 229.311 228.733 229.061 228.621C228.809 228.512 228.577 228.384 228.365 228.238L229.109 226.759C229.135 226.794 229.226 226.86 229.377 226.956C229.529 227.052 229.717 227.15 229.941 227.246C230.164 227.342 230.414 227.429 230.69 227.504C230.966 227.581 231.243 227.618 231.527 227.618C232.125 227.618 232.426 227.435 232.426 227.07C232.426 226.932 232.38 226.818 232.29 226.73C232.2 226.639 232.077 226.56 231.918 226.488C231.758 226.416 231.572 226.349 231.354 226.286C231.137 226.224 230.903 226.155 230.648 226.078C230.31 225.974 230.018 225.863 229.771 225.743C229.523 225.623 229.319 225.482 229.157 225.325C228.995 225.166 228.875 224.985 228.795 224.778C228.716 224.57 228.676 224.331 228.676 224.054C228.676 223.669 228.747 223.328 228.894 223.03C229.037 222.735 229.234 222.485 229.481 222.28C229.728 222.078 230.015 221.924 230.342 221.82C230.669 221.716 231.014 221.666 231.381 221.666C231.636 221.666 231.886 221.69 232.136 221.738C232.383 221.785 232.622 221.847 232.848 221.924C233.074 222.001 233.287 222.086 233.483 222.182C233.68 222.277 233.861 222.376 234.025 222.472L233.281 223.876H233.279Z" fill="#F24902"/>
<path opacity="0.95" d="M310.199 211.657H266.118C262.636 211.657 259.811 208.83 259.811 205.346V161.229C259.811 157.745 262.636 154.918 266.118 154.918H310.199C313.68 154.918 316.505 157.745 316.505 161.229V205.346C316.505 208.83 313.68 211.657 310.199 211.657Z" fill="url(#paint44_linear_24_24227)"/>
<path d="M285.728 197.863H272.483V199.69H285.728V197.863Z" fill="#F24902"/>
<path d="M292.093 202.25H272.483V204.077H292.093V202.25Z" fill="#F24902"/>
<path d="M275.475 190.645H270.357V185.528H271.3V189.701H275.475V190.645Z" fill="#F24902"/>
<path d="M305.96 190.645H300.844V189.701H305.017V185.528H305.96V190.645Z" fill="#F24902"/>
<path d="M271.3 166.496H270.357V161.378H275.475V162.323H271.3V166.496Z" fill="#F24902"/>
<path d="M305.96 166.496H305.017V162.323H300.844V161.378H305.96V166.496Z" fill="#F24902"/>
<path d="M280.107 172.945C280.038 172.879 279.916 172.786 279.738 172.669C279.56 172.552 279.342 172.44 279.084 172.328C278.829 172.217 278.55 172.124 278.25 172.044C277.949 171.964 277.644 171.927 277.335 171.927C276.783 171.927 276.373 172.028 276.102 172.233C275.831 172.435 275.696 172.722 275.696 173.089C275.696 173.302 275.746 173.48 275.847 173.618C275.948 173.759 276.097 173.882 276.291 173.988C276.485 174.094 276.729 174.19 277.024 174.278C277.319 174.366 277.662 174.456 278.048 174.555C278.55 174.69 279.007 174.836 279.419 174.991C279.831 175.145 280.179 175.339 280.463 175.573C280.748 175.805 280.968 176.084 281.125 176.408C281.279 176.733 281.356 177.132 281.356 177.608C281.356 178.161 281.253 178.632 281.045 179.025C280.838 179.416 280.556 179.736 280.203 179.978C279.849 180.22 279.443 180.398 278.983 180.507C278.523 180.619 278.042 180.674 277.537 180.674C276.764 180.674 275.999 180.557 275.244 180.326C274.489 180.095 273.811 179.765 273.211 179.337L274.096 177.608C274.183 177.696 274.34 177.81 274.569 177.948C274.797 178.089 275.066 178.23 275.374 178.368C275.685 178.509 276.028 178.629 276.405 178.725C276.783 178.821 277.171 178.871 277.567 178.871C278.669 178.871 279.222 178.517 279.222 177.81C279.222 177.587 279.158 177.398 279.034 177.243C278.909 177.089 278.728 176.954 278.497 176.837C278.265 176.719 277.984 176.613 277.654 176.517C277.325 176.422 276.958 176.315 276.551 176.198C276.057 176.063 275.629 175.914 275.265 175.754C274.901 175.594 274.601 175.406 274.359 175.188C274.117 174.969 273.936 174.717 273.814 174.432C273.692 174.148 273.633 173.804 273.633 173.408C273.633 172.884 273.729 172.419 273.923 172.012C274.117 171.605 274.385 171.267 274.728 170.996C275.071 170.725 275.47 170.52 275.927 170.379C276.381 170.238 276.87 170.169 277.394 170.169C278.119 170.169 278.789 170.283 279.398 170.509C280.006 170.738 280.54 171.006 280.995 171.315L280.11 172.943L280.107 172.945Z" fill="#F24902"/>
<path d="M284.753 180.708C284.386 180.708 284.04 180.647 283.722 180.527C283.403 180.405 283.126 180.237 282.895 180.019C282.664 179.801 282.48 179.545 282.35 179.256C282.22 178.966 282.154 178.646 282.154 178.295C282.154 177.944 282.233 177.604 282.393 177.301C282.552 176.995 282.775 176.737 283.06 176.524C283.344 176.311 283.687 176.144 284.083 176.024C284.479 175.902 284.915 175.843 285.39 175.843C285.731 175.843 286.06 175.872 286.384 175.931C286.709 175.989 286.996 176.072 287.248 176.178V175.742C287.248 175.239 287.105 174.851 286.82 174.58C286.533 174.309 286.111 174.173 285.55 174.173C285.143 174.173 284.747 174.245 284.359 174.391C283.971 174.537 283.575 174.75 283.169 175.029L282.573 173.795C283.551 173.146 284.607 172.822 285.739 172.822C286.871 172.822 287.681 173.09 288.287 173.628C288.893 174.165 289.196 174.944 289.196 175.96V178.33C289.196 178.532 289.233 178.678 289.305 178.766C289.377 178.854 289.496 178.902 289.661 178.912V180.569C289.332 180.636 289.047 180.67 288.805 180.67C288.439 180.67 288.154 180.588 287.955 180.423C287.756 180.258 287.633 180.04 287.586 179.769L287.543 179.349C287.203 179.795 286.794 180.133 286.31 180.365C285.826 180.596 285.308 180.713 284.755 180.713L284.753 180.708ZM285.305 179.285C285.635 179.285 285.946 179.226 286.241 179.109C286.536 178.992 286.767 178.838 286.929 178.644C287.142 178.479 287.248 178.295 287.248 178.091V177.218C287.017 177.13 286.764 177.061 286.493 177.008C286.222 176.955 285.962 176.928 285.709 176.928C285.207 176.928 284.795 177.043 284.476 177.269C284.157 177.497 283.998 177.785 283.998 178.133C283.998 178.463 284.123 178.737 284.375 178.955C284.628 179.173 284.936 179.282 285.305 179.282V179.285Z" fill="#F24902"/>
<path d="M290.998 169.954H292.943V178.122C292.943 178.404 293.01 178.622 293.145 178.776C293.281 178.931 293.475 179.011 293.727 179.011C293.844 179.011 293.972 178.992 294.113 178.952C294.253 178.912 294.386 178.864 294.511 178.806L294.772 180.287C294.511 180.412 294.206 180.511 293.857 180.577C293.509 180.644 293.193 180.678 292.914 180.678C292.303 180.678 291.832 180.516 291.497 180.191C291.163 179.867 290.995 179.404 290.995 178.803V169.954H290.998Z" fill="#F24902"/>
<path d="M299.143 180.707C298.535 180.707 297.982 180.603 297.488 180.396C296.993 180.188 296.573 179.903 296.225 179.544C295.877 179.185 295.609 178.77 295.42 178.294C295.231 177.821 295.136 177.321 295.136 176.797C295.136 176.273 295.229 175.744 295.412 175.265C295.595 174.786 295.861 174.363 296.212 174.002C296.56 173.637 296.983 173.35 297.482 173.137C297.982 172.924 298.54 172.818 299.159 172.818C299.778 172.818 300.334 172.924 300.823 173.137C301.312 173.35 301.729 173.637 302.072 173.994C302.415 174.353 302.678 174.768 302.856 175.244C303.034 175.72 303.124 176.212 303.124 176.725C303.124 176.85 303.124 176.973 303.116 177.09C303.108 177.207 303.1 177.302 303.079 177.379H297.198C297.227 177.68 297.299 177.946 297.416 178.177C297.533 178.409 297.682 178.608 297.865 178.773C298.048 178.938 298.256 179.063 298.49 179.151C298.721 179.239 298.963 179.281 299.215 179.281C299.603 179.281 299.967 179.185 300.31 178.997C300.653 178.808 300.889 178.558 301.014 178.249L302.683 178.715C302.401 179.297 301.955 179.773 301.341 180.146C300.727 180.518 299.994 180.704 299.141 180.704L299.143 180.707ZM301.118 176.113C301.07 175.542 300.86 175.084 300.485 174.741C300.113 174.398 299.659 174.225 299.127 174.225C298.867 174.225 298.622 174.27 298.394 174.363C298.165 174.456 297.966 174.584 297.791 174.749C297.615 174.914 297.474 175.113 297.363 175.345C297.251 175.576 297.185 175.834 297.166 176.116H301.115L301.118 176.113Z" fill="#F24902"/>
<path d="M161.963 441.589C161.963 441.589 163.124 446.265 164.374 447.693C165.625 449.121 170.741 458.348 172.872 459.092C175.004 459.837 179.333 460.778 179.37 461.736C179.41 462.693 178.839 467.234 172.585 466.449C166.329 465.664 164.708 465.3 163.419 463.55C162.131 461.797 155.359 456.52 153.719 456.313L154.214 464.14L152.571 463.933C152.571 463.933 152.223 454.034 151.208 451.999C150.193 449.964 152.385 443.246 155.944 440.831C159.502 438.416 161.963 441.586 161.963 441.586V441.589Z" fill="#D69779"/>
<path d="M159.08 443.196C159.08 443.196 160.812 447.691 162.231 448.954C163.651 450.215 169.875 458.734 172.083 459.207C174.289 459.681 178.703 460.074 178.86 461.021C179.017 461.968 179.017 466.543 172.713 466.543C166.409 466.543 164.753 466.386 163.257 464.809C161.761 463.231 155.851 458.657 154.195 458.657V466.543H152.539C152.539 466.543 150.963 456.763 149.704 454.869C148.441 452.976 149.783 446.037 153.012 443.196C156.244 440.358 159.08 443.196 159.08 443.196Z" fill="#EEA886"/>
<path d="M172.083 459.207C172.083 459.207 165.07 459.994 162.154 457.629C159.239 455.262 155.649 449.469 149.72 449.211C149.72 449.211 147.53 451.884 150.862 458.188C150.862 458.188 152.619 465.358 152.539 466.542H154.195V458.656C154.195 458.656 160.071 461.417 164.068 466.068C164.068 466.068 176.104 468.276 178.466 464.571C178.466 464.571 179.766 462.717 179.253 460.863C178.74 459.01 172.083 459.207 172.083 459.207Z" fill="#090A0B"/>
<path d="M189.958 384.924C189.703 388.129 184.576 396.249 182.7 398.643C180.821 401.037 162.545 442.235 162.545 442.235L157.846 440.783C157.846 440.783 159.468 434.543 158.872 420.782C158.274 407.018 170.619 390.169 172.508 388.472C175.299 385.964 175.184 382.318 173.733 379.326C173.367 378.573 172.104 376.762 170.419 374.474C169.766 373.591 169.051 372.634 168.301 371.639C163.305 365.03 156.738 356.761 156.738 356.761C156.738 356.761 154.006 354.282 148.197 346.162C142.39 338.042 148.54 327.699 148.54 327.699C162.803 324.792 177.661 334.279 177.661 334.279C177.661 334.279 177.661 341.545 181.164 347.955C184.667 354.367 190.216 381.719 189.96 384.922L189.958 384.924Z" fill="url(#paint45_linear_24_24227)"/>
<path d="M148.534 327.7C148.534 327.7 140.878 335.437 149.762 351.677C149.762 351.677 150.416 360.948 150.501 364.026C150.586 367.103 152.295 378.641 151.099 384.197C149.903 389.753 146.23 398.043 147.341 406.078C148.452 414.113 151.277 437.361 149.996 443.26H159.127C159.127 443.26 162.63 394.37 163.398 392.66C164.166 390.949 167.156 387.274 166.986 379.667C166.816 372.06 177.491 342.913 177.661 334.28C177.831 325.646 148.537 327.7 148.537 327.7H148.534Z" fill="url(#paint46_linear_24_24227)"/>
<path d="M135.652 348.67L133.445 347.275L61.52 461.273L63.7267 462.667L135.652 348.67Z" fill="#252740"/>
<path d="M133.968 337.702C133.968 337.702 131.268 340.854 129.9 341.814C128.534 342.777 125.863 344.429 126.357 347.056C126.851 349.684 126.418 355.815 128.547 356.046C130.673 356.278 134.734 345.681 135.613 343.333C136.493 340.987 137.633 339.139 137.633 339.139L133.966 337.702H133.968Z" fill="#EEA886"/>
<path d="M65.1349 467.694C63.5111 470.266 60.1121 471.035 57.5396 469.412C54.9698 467.787 54.2017 464.385 55.8255 461.811C57.4493 459.239 60.8483 458.47 63.4208 460.093C65.9906 461.718 66.7587 465.119 65.1349 467.694Z" fill="#252740"/>
<path d="M63.4685 460.228L45.4104 448.816C43.1568 447.393 42.4844 444.411 43.9062 442.156L79.5893 385.603C81.0111 383.348 83.9902 382.675 86.2438 384.098L104.302 395.51C106.556 396.933 107.228 399.915 105.806 402.17L70.123 458.723C68.7013 460.978 65.7221 461.651 63.4685 460.228Z" fill="url(#paint47_linear_24_24227)"/>
<path d="M95.5627 389.984L95.0189 389.64L54.1972 454.365L54.741 454.709L95.5627 389.984Z" fill="#FFB055"/>
<path d="M159.175 288.918C158.609 289.575 156.297 293.389 153.852 297.461C153.448 298.134 153.042 298.812 152.635 299.485C152.311 300.025 151.987 300.565 151.673 301.091C151.325 301.669 150.985 302.232 150.658 302.778C149.292 305.046 148.141 306.932 147.57 307.775C145.938 310.201 143.02 319.183 142.332 320.957C141.643 322.731 137.777 340.417 137.777 340.417C137.777 340.417 128.374 339.96 128.698 339.266C129.023 338.569 133.599 319.499 134.465 316.637C135.608 312.876 139.772 302.82 140.174 302.081C140.575 301.341 149.055 285.764 150.233 283.072C151.479 280.221 152.186 277.622 157.036 272.423C161.886 267.226 166.959 270.34 166.959 270.34C171.057 273.609 160.334 287.57 159.175 288.918Z" fill="#756BED"/>
<path d="M162.277 264.934C162.853 261.854 162.277 257.407 162.277 257.407C162.277 257.407 173.515 262.606 171.57 264.016C171.062 264.383 170.712 265.091 170.472 265.934C169.787 268.333 169.981 271.846 169.981 271.846L173.709 276.29C176.999 280.812 161.997 266.428 162.279 264.931L162.277 264.934Z" fill="#EEA886"/>
<path d="M170.496 232.432C174.233 232.358 182.455 234.469 183.452 244.401C183.452 244.401 183.077 247.06 182.373 249.138C181.666 251.215 183.37 257.449 182.873 257.742C182.373 258.032 180.34 258.364 180.34 258.364C180.34 258.364 177.972 265.056 175.607 264.931C173.239 264.806 164.326 262.699 160.339 254.18C156.353 245.661 155.412 232.735 170.499 232.429L170.496 232.432Z" fill="#EEA886"/>
<path d="M183.452 244.401C183.452 244.401 177.278 248.364 171.243 249.028C165.208 249.693 161.192 255.795 161.192 255.795C161.192 255.795 152.361 244.039 160.004 234.951C167.645 225.863 185.086 232.9 183.455 244.398L183.452 244.401Z" fill="#2B211C"/>
<path d="M179.216 299.844C177.358 301.798 178.884 306.328 178.634 308.905C178.567 309.591 178.352 311.849 178.052 314.839C177.744 317.932 177.345 321.807 176.933 325.544C176.768 327.039 176.603 328.51 176.439 329.901C175.918 334.308 175.421 337.901 175.102 338.8C174.188 341.377 153.826 341.499 145.768 332.773C145.768 332.773 144.349 329.901 153.597 313.182C155.452 309.828 153.634 293.197 152.138 288.79C150.644 284.386 150.113 269.412 162.274 264.933C162.274 264.933 169.58 271.249 172.072 274.077C174.565 276.904 182.703 287.128 183.452 290.202C184.201 293.277 181.236 297.718 179.216 299.844Z" fill="#756BED"/>
<path d="M171.57 264.015C171.062 264.382 170.712 265.09 170.472 265.933C166.114 263.319 163.972 259.396 163.906 259.276C166.284 262.212 171.573 264.015 171.573 264.015H171.57Z" fill="#A77860"/>
<path d="M153.826 298.267C153.531 298.823 153.233 299.379 152.946 299.921C152.63 300.517 152.319 301.097 152.018 301.658C151.604 296.669 151.412 284.506 151.412 284.506C151.412 284.506 151.936 288.104 152.489 290.019C152.999 291.788 153.717 297.421 153.826 298.267Z" fill="#DE8F3E"/>
<path d="M168.801 230.812C168.801 230.812 153.129 229.599 153.826 248.682C154.522 267.766 151.322 272.782 144.389 281.428C137.455 290.075 143.536 300.857 150.254 295.307C156.975 289.756 164.676 277.223 164.823 263.813C164.969 250.403 168.798 230.812 168.798 230.812H168.801Z" fill="#2B211C"/>
<path d="M168.753 248.683C168.753 247.518 167.507 245.733 165.556 247.271C163.605 248.808 166.013 254.42 167.592 253.92C169.17 253.42 168.756 249.888 168.756 248.683H168.753Z" fill="#EEA886"/>
<path d="M175.408 323.042C170.876 321.813 166.821 319.56 163.35 316.345C158.306 311.674 155.067 304.121 154.227 295.081C153.501 287.267 154.71 279.218 157.387 274.08C159.462 270.098 162.231 268.258 165.189 268.904C169.904 269.931 177.127 278.968 186.662 295.764C193.729 308.214 199.514 320.526 199.573 320.651L199.74 321.01L199.379 321.169C199.326 321.193 194.087 323.489 187.077 324.039C186.062 324.119 185.06 324.159 184.074 324.159C181.042 324.159 178.139 323.787 175.41 323.047L175.408 323.042ZM165.024 269.662C162.441 269.098 159.972 270.795 158.075 274.439C155.463 279.452 154.285 287.333 154.997 295.009C155.821 303.86 158.973 311.236 163.876 315.776C171.517 322.853 180.664 323.755 186.989 323.263C192.822 322.81 197.401 321.127 198.696 320.608C196.551 316.095 175.309 271.899 165.024 269.659V269.662Z" fill="#4F5980"/>
<path d="M177.348 310.22C177.348 310.22 181.004 311.273 181.831 311.134C182.657 310.996 186.25 310.185 187.308 309.541C188.363 308.898 190.505 308.975 192.661 309.48C194.818 309.985 194.587 311.454 195.964 312.145C197.34 312.834 198.396 313.156 198.257 314.119C198.119 315.084 197.936 317.656 197.202 317.746C196.469 317.837 185.031 317.808 175.859 315.252C166.688 312.696 177.345 310.22 177.345 310.22H177.348Z" fill="#EEA987"/>
<path d="M195.642 317.214L168.522 313.35C166.258 313.028 164.094 314.398 163.417 316.584L157.597 335.364C156.76 338.069 158.503 340.888 161.293 341.345L194.733 346.814C197.614 347.285 200.213 345.018 200.142 342.101L199.642 321.717C199.586 319.44 197.896 317.539 195.642 317.217V317.214Z" fill="#201667"/>
<path d="M133.317 351.671C134.869 352.245 136.591 351.455 137.168 349.902C137.742 348.349 136.953 346.625 135.401 346.048C133.849 345.474 132.124 346.263 131.55 347.817C130.976 349.37 131.765 351.096 133.317 351.671Z" fill="#252740"/>
<path d="M162.441 288.633C162.441 288.633 158.126 299.232 159.085 300.405C160.044 301.578 171.568 306.839 171.568 306.839C171.568 306.839 154.907 304.099 154.79 301.32C154.676 298.543 162.439 288.63 162.439 288.63L162.441 288.633Z" fill="#4E479E"/>
<path d="M159.271 272.085C159.271 272.085 144.784 294.693 144.784 300.326C144.784 305.959 145.946 307.307 156.164 310.308C166.382 313.308 175.62 316.063 175.62 316.063L177.701 309.02C177.701 309.02 157.203 301.916 156.347 300.509C155.492 299.102 168.338 279.2 168.338 279.2C168.338 279.2 172.008 273.139 167.116 270.322C162.221 267.505 159.268 272.085 159.268 272.085H159.271Z" fill="#756BED"/>
<path d="M175.025 347.282C175.014 349.857 170.417 374.475 170.417 374.475C169.763 373.592 169.048 372.634 168.299 371.64L175.028 347.282H175.025Z" fill="#36326E"/>
<path d="M405.058 454.446C405.058 454.446 398.807 453.118 398.589 452.924C398.374 452.73 397.072 450.227 396.094 450.642C395.116 451.057 395.052 454.076 394.092 454.571C393.136 455.065 385.559 459.996 384.624 460.901C383.688 461.805 378.025 461.164 377.347 462.754C376.67 464.345 376.547 468.127 385.022 467.385C393.497 466.643 403.134 468.193 404.97 467.223C406.809 466.255 405.594 456.893 405.055 454.446H405.058Z" fill="#090A0B"/>
<path d="M455.612 450.957C455.612 450.957 449.229 450.649 448.984 450.492C448.74 450.335 447.055 448.072 446.157 448.638C445.258 449.205 445.676 452.194 444.809 452.835C443.943 453.476 437.254 459.556 436.475 460.599C435.696 461.641 430.004 461.915 429.589 463.594C429.175 465.272 429.658 469.025 437.905 466.937C446.151 464.849 455.91 464.833 457.571 463.583C459.232 462.333 456.537 453.287 455.612 450.957Z" fill="#090A0B"/>
<path d="M455.612 450.957L453.917 445.329L446.303 446.425L447.35 451.489L455.612 450.957Z" fill="#EEA886"/>
<path d="M405.539 451.379L405.058 454.445L396.771 452.911L397.295 448.328L405.539 451.379Z" fill="#EEA886"/>
<path d="M425.058 353.04C425.058 353.04 426.345 364.032 427.756 375.296C428.077 377.86 428.404 380.437 428.723 382.903C429.778 390.999 430.754 397.885 431.171 399.092C432.295 402.345 443.361 452.054 443.361 452.054C443.361 452.054 457.18 452.719 457.59 451.387C457.59 451.387 447.313 396.467 447.464 394.624C447.618 392.781 445.809 340.787 445.809 340.787C445.809 340.787 425.67 350.05 425.053 353.04H425.058Z" fill="#564332"/>
<path d="M412.501 338.716C412.501 338.716 403.067 388.103 402.148 391.994C401.225 395.885 393.513 453.092 393.513 453.092C393.513 453.092 399.044 456.792 407.139 456.382C407.139 456.382 419.246 395.194 420.23 393.329C424.043 386.092 436.885 351.99 438.726 346.974C440.568 341.955 446.037 335.09 446.037 335.09C446.037 335.09 431.304 328.755 412.504 338.718L412.501 338.716Z" fill="#564332"/>
<path d="M418.053 268.257C418.053 268.257 412.791 278.409 411.847 284.513C410.904 290.617 415.23 310.466 415.116 313.921C414.811 323.225 411.683 343.01 411.683 343.01L440.198 344.792C440.198 344.792 442.617 335.26 444.203 323.618C445.79 311.974 443.86 301.931 444.03 295.163C444.612 272.063 426.823 264.201 426.823 264.201L418.053 268.26V268.257Z" fill="#EB4747"/>
<path d="M412.188 339.688L411.34 344.789C411.34 344.789 432.497 346.247 445.997 346.125L445.721 341.569C445.721 341.569 425.502 341.257 412.19 339.691L412.188 339.688Z" fill="#40498C"/>
<path d="M406.578 239.469C406.578 239.469 402.69 244.645 404.064 245.751C405.199 246.663 401.664 251.786 401.175 252.637C400.686 253.488 403.192 254.539 403.66 255.204C404.125 255.869 404.688 263.273 406.804 263.813C408.919 264.353 419.098 262.446 422.146 260.103C425.194 257.76 429.22 245.706 428.25 240.219C427.28 234.732 413.426 230.437 406.583 239.472L406.578 239.469Z" fill="#EEA886"/>
<path d="M413.482 263.244C413.482 263.244 413.655 263.855 413.902 264.805C414.006 265.201 414.123 265.659 414.247 266.153C414.343 266.531 414.441 266.93 414.54 267.342C415.164 269.935 415.821 273.071 415.76 274.571C415.648 277.372 426.82 264.199 426.82 264.199C426.82 264.199 423.156 255.339 422.071 245.27C420.987 235.203 413.482 263.244 413.482 263.244Z" fill="#EEA886"/>
<path d="M405.788 240.599C405.788 240.599 403.607 234.046 409.918 230.381C416.23 226.716 425.42 236.208 426.547 236.687C427.671 237.166 434.062 238.543 429.132 249.789C424.678 259.943 424.965 258.861 424.965 258.861C424.965 258.861 423.004 253.608 421.92 252.539C420.227 250.871 416.007 250.573 416.007 250.573C416.007 250.573 418.789 245.594 415.797 244.379C412.804 243.163 409.108 239.91 405.791 240.605L405.788 240.599Z" fill="#2B211C"/>
<path d="M419.764 248.046C420.147 247.363 421.502 244.387 423.894 246.615C426.286 248.847 421.072 254.057 420.596 254.063C420.12 254.068 416.543 253.791 419.764 248.046Z" fill="#EEA886"/>
<path d="M413.4 263.188C413.4 263.188 413.655 263.856 413.905 264.805C414.008 265.202 414.125 265.659 414.25 266.154C419.99 263.095 421.635 260.497 421.683 260.417C419.01 261.8 413.4 263.188 413.4 263.188Z" fill="#A77860"/>
<path d="M413.631 289.295C414.064 291.439 414.447 293.599 414.781 295.761C415.52 300.522 416.033 305.296 416.379 309.927C416.504 311.578 416.602 313.211 416.687 314.82C417.676 333.991 424.628 354.248 424.628 354.248C424.628 354.248 440.993 353.907 444.833 351.96C444.833 351.96 446.77 326.688 445.11 305.344C444.982 303.695 444.83 302.049 444.652 300.413C442.771 283.12 439.693 266.154 426.823 264.199C426.565 264.427 411.351 278.042 413.631 289.295Z" fill="url(#paint48_linear_24_24227)"/>
<path d="M445.224 306.871C445.224 306.871 444.9 327.673 455.065 348.36C456.306 350.886 435.239 353.682 435.239 353.682L445.221 306.871H445.224Z" fill="url(#paint49_linear_24_24227)"/>
<path d="M421.84 373.616L456.755 368.073C459.732 367.599 461.616 364.618 460.768 361.724L453.71 337.649C452.992 335.202 450.552 333.689 448.046 334.13L416.381 339.715C413.695 340.189 411.885 342.729 412.313 345.426L416.121 369.459C416.554 372.187 419.113 374.049 421.84 373.616Z" fill="#FF6727"/>
<path d="M413.865 353.197C413.163 317.328 416.185 295.865 418.84 284.173C421.75 271.369 424.84 267.138 424.971 266.962L425.699 265.991L426.454 266.941C437.889 281.369 445.312 302.713 449.524 318.076C454.079 334.688 455.971 348.093 455.99 348.226L456.12 349.17L413.883 354.226L413.862 353.194L413.865 353.197ZM447.722 318.573C443.659 303.756 436.592 283.332 425.818 269.175C424.774 271.114 422.632 275.827 420.596 284.888C418.021 296.351 415.098 317.291 415.714 352.128L453.999 347.545C453.489 344.228 451.557 332.558 447.722 318.576V318.573Z" fill="#FF6727"/>
<path d="M427.373 264.294L426.212 262.592C426.212 262.592 417.402 269.388 414.391 281.503C414.391 281.503 420.87 269.063 427.376 264.294H427.373Z" fill="#FFC05C"/>
<path d="M429.201 284.998C429.201 284.998 432.563 303.839 431.42 305.605C430.278 307.371 422.627 318.536 422.627 318.536C422.627 318.536 456.994 309.913 429.199 284.998H429.201Z" fill="#D69D40"/>
<path d="M409.809 345.128C409.809 345.128 410.971 344.737 411.393 344.319C411.393 344.319 412.105 343.497 412.65 342.947C412.823 342.771 412.977 342.622 413.086 342.537C413.543 342.181 414.657 341.532 415.515 340.364C416.374 339.199 418.991 334.771 418.991 334.771L415.616 331.869L413.506 328.635C413.506 328.635 405.35 331.928 404.422 332.922C404.332 333.021 404.247 333.119 404.175 333.22C403.474 334.138 403.336 335.117 403.022 335.641C402.908 335.835 401.903 337.83 402.169 338.441C402.538 339.29 403.142 339.729 403.766 339.838C403.766 339.838 404.563 341.471 405.677 341.979C405.677 341.979 406.365 343.508 407.928 343.745C407.928 343.745 408.799 345.218 409.809 345.13V345.128Z" fill="#EFAA88"/>
<path d="M425.154 276.085C425.154 276.085 433.929 293.625 435.239 304.493C435.651 307.902 411.143 328.297 411.34 329.613C411.537 330.93 418.534 336.882 418.534 336.882C418.534 336.882 448.424 311.073 448.62 308.921C448.817 306.769 442.529 279.087 438.793 273.313C435.989 268.983 430.488 263.318 426.677 265.172C421.548 267.664 425.154 276.085 425.154 276.085Z" fill="url(#paint50_linear_24_24227)"/>
<defs>
<linearGradient id="paint0_linear_24_24227" x1="-69" y1="367" x2="-64.5297" y2="520.233" gradientUnits="userSpaceOnUse">
<stop stop-color="white"/>
<stop offset="1" stop-color="#FEB877"/>
</linearGradient>
<linearGradient id="paint1_linear_24_24227" x1="128.418" y1="80.2949" x2="214.899" y2="38.4902" gradientUnits="userSpaceOnUse">
<stop stop-color="white"/>
<stop offset="1" stop-color="#CCCFDB"/>
</linearGradient>
<linearGradient id="paint2_linear_24_24227" x1="135.294" y1="94.5314" x2="221.782" y2="52.7243" gradientUnits="userSpaceOnUse">
<stop stop-color="white"/>
<stop offset="1" stop-color="#CCCFDB"/>
</linearGradient>
<linearGradient id="paint3_linear_24_24227" x1="129.894" y1="83.3517" x2="216.379" y2="41.5457" gradientUnits="userSpaceOnUse">
<stop stop-color="white"/>
<stop offset="1" stop-color="#CCCFDB"/>
</linearGradient>
<linearGradient id="paint4_linear_24_24227" x1="135.104" y1="75.0252" x2="219.236" y2="43.1123" gradientUnits="userSpaceOnUse">
<stop stop-color="white"/>
<stop offset="1" stop-color="#CCCFDB"/>
</linearGradient>
<linearGradient id="paint5_linear_24_24227" x1="136.466" y1="78.6146" x2="220.598" y2="46.7017" gradientUnits="userSpaceOnUse">
<stop stop-color="white"/>
<stop offset="1" stop-color="#CCCFDB"/>
</linearGradient>
<linearGradient id="paint6_linear_24_24227" x1="135.369" y1="75.7218" x2="219.498" y2="43.8102" gradientUnits="userSpaceOnUse">
<stop stop-color="white"/>
<stop offset="1" stop-color="#CCCFDB"/>
</linearGradient>
<linearGradient id="paint7_linear_24_24227" x1="158.903" y1="73.4901" x2="207.705" y2="50.4947" gradientUnits="userSpaceOnUse">
<stop stop-color="white"/>
<stop offset="1" stop-color="#CCCFDB"/>
</linearGradient>
<linearGradient id="paint8_linear_24_24227" x1="126.958" y1="77.2733" x2="213.439" y2="35.4686" gradientUnits="userSpaceOnUse">
<stop stop-color="white"/>
<stop offset="1" stop-color="#CCCFDB"/>
</linearGradient>
<linearGradient id="paint9_linear_24_24227" x1="120.043" y1="62.9589" x2="206.519" y2="21.1578" gradientUnits="userSpaceOnUse">
<stop stop-color="white"/>
<stop offset="1" stop-color="#CCCFDB"/>
</linearGradient>
<linearGradient id="paint10_linear_24_24227" x1="125.448" y1="74.1523" x2="211.933" y2="32.3465" gradientUnits="userSpaceOnUse">
<stop stop-color="white"/>
<stop offset="1" stop-color="#CCCFDB"/>
</linearGradient>
<linearGradient id="paint11_linear_24_24227" x1="132.055" y1="66.9815" x2="216.183" y2="35.0722" gradientUnits="userSpaceOnUse">
<stop stop-color="white"/>
<stop offset="1" stop-color="#CCCFDB"/>
</linearGradient>
<linearGradient id="paint12_linear_24_24227" x1="133.157" y1="69.8911" x2="217.289" y2="37.9781" gradientUnits="userSpaceOnUse">
<stop stop-color="white"/>
<stop offset="1" stop-color="#CCCFDB"/>
</linearGradient>
<linearGradient id="paint13_linear_24_24227" x1="134.282" y1="72.8608" x2="218.413" y2="40.9503" gradientUnits="userSpaceOnUse">
<stop stop-color="white"/>
<stop offset="1" stop-color="#CCCFDB"/>
</linearGradient>
<linearGradient id="paint14_linear_24_24227" x1="151.331" y1="57.4247" x2="200.136" y2="34.4303" gradientUnits="userSpaceOnUse">
<stop stop-color="white"/>
<stop offset="1" stop-color="#CCCFDB"/>
</linearGradient>
<linearGradient id="paint15_linear_24_24227" x1="136.854" y1="55.2632" x2="165.508" y2="34.0369" gradientUnits="userSpaceOnUse">
<stop stop-color="white"/>
<stop offset="1" stop-color="#CCCFDB"/>
</linearGradient>
<linearGradient id="paint16_linear_24_24227" x1="144.168" y1="76.4189" x2="176.739" y2="52.2913" gradientUnits="userSpaceOnUse">
<stop stop-color="white"/>
<stop offset="1" stop-color="#CCCFDB"/>
</linearGradient>
<linearGradient id="paint17_linear_24_24227" x1="355.725" y1="82.8654" x2="444.993" y2="150.21" gradientUnits="userSpaceOnUse">
<stop stop-color="white"/>
<stop offset="1" stop-color="#CCCFDB"/>
</linearGradient>
<linearGradient id="paint18_linear_24_24227" x1="344.642" y1="97.5525" x2="433.912" y2="164.9" gradientUnits="userSpaceOnUse">
<stop stop-color="white"/>
<stop offset="1" stop-color="#CCCFDB"/>
</linearGradient>
<linearGradient id="paint19_linear_24_24227" x1="353.347" y1="86.0193" x2="442.614" y2="153.361" gradientUnits="userSpaceOnUse">
<stop stop-color="white"/>
<stop offset="1" stop-color="#CCCFDB"/>
</linearGradient>
<linearGradient id="paint20_linear_24_24227" x1="365.016" y1="86.643" x2="442.812" y2="156.814" gradientUnits="userSpaceOnUse">
<stop stop-color="white"/>
<stop offset="1" stop-color="#CCCFDB"/>
</linearGradient>
<linearGradient id="paint21_linear_24_24227" x1="362.027" y1="89.9621" x2="439.82" y2="160.131" gradientUnits="userSpaceOnUse">
<stop stop-color="white"/>
<stop offset="1" stop-color="#CCCFDB"/>
</linearGradient>
<linearGradient id="paint22_linear_24_24227" x1="364.44" y1="87.2905" x2="442.23" y2="157.454" gradientUnits="userSpaceOnUse">
<stop stop-color="white"/>
<stop offset="1" stop-color="#CCCFDB"/>
</linearGradient>
<linearGradient id="paint23_linear_24_24227" x1="379.242" y1="110.5" x2="429.006" y2="148.812" gradientUnits="userSpaceOnUse">
<stop stop-color="white"/>
<stop offset="1" stop-color="#CCCFDB"/>
</linearGradient>
<linearGradient id="paint24_linear_24_24227" x1="358.08" y1="79.7491" x2="447.345" y2="147.091" gradientUnits="userSpaceOnUse">
<stop stop-color="white"/>
<stop offset="1" stop-color="#CCCFDB"/>
</linearGradient>
<linearGradient id="paint25_linear_24_24227" x1="369.223" y1="64.9813" x2="458.485" y2="132.323" gradientUnits="userSpaceOnUse">
<stop stop-color="white"/>
<stop offset="1" stop-color="#CCCFDB"/>
</linearGradient>
<linearGradient id="paint26_linear_24_24227" x1="360.505" y1="76.5267" x2="449.776" y2="143.874" gradientUnits="userSpaceOnUse">
<stop stop-color="white"/>
<stop offset="1" stop-color="#CCCFDB"/>
</linearGradient>
<linearGradient id="paint27_linear_24_24227" x1="371.686" y1="79.2174" x2="449.482" y2="149.444" gradientUnits="userSpaceOnUse">
<stop stop-color="white"/>
<stop offset="1" stop-color="#CCCFDB"/>
</linearGradient>
<linearGradient id="paint28_linear_24_24227" x1="369.302" y1="81.901" x2="447.087" y2="152.065" gradientUnits="userSpaceOnUse">
<stop stop-color="white"/>
<stop offset="1" stop-color="#CCCFDB"/>
</linearGradient>
<linearGradient id="paint29_linear_24_24227" x1="366.825" y1="84.646" x2="444.613" y2="154.813" gradientUnits="userSpaceOnUse">
<stop stop-color="white"/>
<stop offset="1" stop-color="#CCCFDB"/>
</linearGradient>
<linearGradient id="paint30_linear_24_24227" x1="391.852" y1="94.1249" x2="441.613" y2="132.437" gradientUnits="userSpaceOnUse">
<stop stop-color="white"/>
<stop offset="1" stop-color="#CCCFDB"/>
</linearGradient>
<linearGradient id="paint31_linear_24_24227" x1="343.878" y1="32.8444" x2="355.91" y2="23.9303" gradientUnits="userSpaceOnUse">
<stop stop-color="white"/>
<stop offset="1" stop-color="#CCCFDB"/>
</linearGradient>
<linearGradient id="paint32_linear_24_24227" x1="315.105" y1="39.6319" x2="330.665" y2="28.1034" gradientUnits="userSpaceOnUse">
<stop stop-color="white"/>
<stop offset="1" stop-color="#CCCFDB"/>
</linearGradient>
<linearGradient id="paint33_linear_24_24227" x1="272.456" y1="89.3814" x2="280.055" y2="119.042" gradientUnits="userSpaceOnUse">
<stop stop-color="#FE922B"/>
<stop offset="1" stop-color="#FF5B25"/>
</linearGradient>
<linearGradient id="paint34_linear_24_24227" x1="305.423" y1="169.661" x2="327.088" y2="289.461" gradientUnits="userSpaceOnUse">
<stop stop-color="#FE922B"/>
<stop offset="1" stop-color="#FF5B25"/>
</linearGradient>
<linearGradient id="paint35_linear_24_24227" x1="135.812" y1="69.258" x2="228.791" y2="291.425" gradientUnits="userSpaceOnUse">
<stop stop-color="#FE922B"/>
<stop offset="1" stop-color="#FF5B25"/>
</linearGradient>
<linearGradient id="paint36_linear_24_24227" x1="298.956" y1="44.3775" x2="328.692" y2="182.011" gradientUnits="userSpaceOnUse">
<stop stop-color="#FE922B"/>
<stop offset="1" stop-color="#FF5B25"/>
</linearGradient>
<linearGradient id="paint37_linear_24_24227" x1="330" y1="84" x2="332" y2="121" gradientUnits="userSpaceOnUse">
<stop stop-color="#7569FA"/>
<stop offset="1" stop-color="#5047B9"/>
</linearGradient>
<linearGradient id="paint38_linear_24_24227" x1="102.545" y1="104.552" x2="117.425" y2="104.552" gradientUnits="userSpaceOnUse">
<stop stop-color="#F9A12D"/>
<stop offset="1" stop-color="#FF977A"/>
</linearGradient>
<linearGradient id="paint39_linear_24_24227" x1="199.413" y1="290.963" x2="350.381" y2="290.963" gradientUnits="userSpaceOnUse">
<stop stop-color="#FF9F55"/>
<stop offset="1" stop-color="#FFD255"/>
</linearGradient>
<linearGradient id="paint40_linear_24_24227" x1="243.853" y1="331.586" x2="243.853" y2="498.843" gradientUnits="userSpaceOnUse">
<stop stop-color="#FFC05C"/>
<stop offset="1" stop-color="#FF3857"/>
</linearGradient>
<linearGradient id="paint41_linear_24_24227" x1="278.962" y1="163.734" x2="278.962" y2="540.52" gradientUnits="userSpaceOnUse">
<stop stop-color="white"/>
<stop offset="1" stop-color="white"/>
</linearGradient>
<linearGradient id="paint42_linear_24_24227" x1="335.929" y1="428.867" x2="335.929" y2="226.133" gradientUnits="userSpaceOnUse">
<stop stop-color="#FFCEB8"/>
<stop offset="1" stop-color="#FEE4D0"/>
</linearGradient>
<linearGradient id="paint43_linear_24_24227" x1="213.24" y1="317.422" x2="213.24" y2="191.222" gradientUnits="userSpaceOnUse">
<stop stop-color="#FFCEB8"/>
<stop offset="1" stop-color="#FEE4D0"/>
</linearGradient>
<linearGradient id="paint44_linear_24_24227" x1="288.158" y1="126.122" x2="288.158" y2="208.866" gradientUnits="userSpaceOnUse">
<stop stop-color="#FFCEB8"/>
<stop offset="1" stop-color="#FEE4D0"/>
</linearGradient>
<linearGradient id="paint45_linear_24_24227" x1="167.835" y1="327.145" x2="167.835" y2="442.235" gradientUnits="userSpaceOnUse">
<stop stop-color="#4E47AE"/>
<stop offset="1" stop-color="#3110B5"/>
</linearGradient>
<linearGradient id="paint46_linear_24_24227" x1="161.565" y1="327.486" x2="161.565" y2="443.26" gradientUnits="userSpaceOnUse">
<stop stop-color="#4E47AE"/>
<stop offset="1" stop-color="#3110B5"/>
</linearGradient>
<linearGradient id="paint47_linear_24_24227" x1="43.1621" y1="422.163" x2="106.55" y2="422.163" gradientUnits="userSpaceOnUse">
<stop stop-color="#FF9F55"/>
<stop offset="1" stop-color="#FFD255"/>
</linearGradient>
<linearGradient id="paint48_linear_24_24227" x1="429.59" y1="264.199" x2="429.59" y2="354.248" gradientUnits="userSpaceOnUse">
<stop stop-color="#FEB33D"/>
<stop offset="0.0001" stop-color="#FEC05D"/>
<stop offset="1" stop-color="#FCAC2C"/>
</linearGradient>
<linearGradient id="paint49_linear_24_24227" x1="445.178" y1="306.871" x2="445.178" y2="353.682" gradientUnits="userSpaceOnUse">
<stop stop-color="#FEB33D"/>
<stop offset="0.0001" stop-color="#FEC05D"/>
<stop offset="1" stop-color="#FCAC2C"/>
</linearGradient>
<linearGradient id="paint50_linear_24_24227" x1="429.982" y1="264.811" x2="429.982" y2="336.882" gradientUnits="userSpaceOnUse">
<stop stop-color="#FEB33D"/>
<stop offset="0.0001" stop-color="#FEC05D"/>
<stop offset="1" stop-color="#FCAC2C"/>
</linearGradient>
</defs>
</svg>
