<svg width="23" height="24" viewBox="0 0 23 24" fill="none" xmlns="http://www.w3.org/2000/svg">
<path d="M11.4 6.02133C13.3529 6.02133 14.6702 6.86489 15.4213 7.56978L18.3565 4.704C16.5538 3.02844 14.208 2 11.4 2C7.33246 2 3.81957 4.33422 2.10934 7.73156L5.47201 10.3431C6.31557 7.83556 8.64979 6.02133 11.4 6.02133Z" fill="#EA4335"/>
<path d="M21.384 12.6311C21.384 11.776 21.3147 11.152 21.1644 10.5049H11.4V14.3644H17.1315C17.016 15.3235 16.392 16.768 15.0053 17.7387L18.2871 20.2809C20.2515 18.4667 21.384 15.7973 21.384 12.6311Z" fill="#4285F4"/>
<path d="M5.48356 14.4568C5.264 13.8097 5.13689 13.1163 5.13689 12.3999C5.13689 11.6834 5.264 10.9901 5.472 10.343L2.10933 7.73145C1.40444 9.14122 1 10.7243 1 12.3999C1 14.0754 1.40444 15.6586 2.10933 17.0683L5.48356 14.4568Z" fill="#FBBC05"/>
<path d="M11.4 22.7999C14.208 22.7999 16.5653 21.8755 18.2871 20.2808L15.0053 17.7386C14.1271 18.351 12.9484 18.7786 11.4 18.7786C8.64977 18.7786 6.31555 16.9643 5.48355 14.4568L2.12088 17.0683C3.8311 20.4657 7.33244 22.7999 11.4 22.7999Z" fill="#34A853"/>
</svg>
