<svg width="52" height="51" viewBox="0 0 52 51" fill="none" xmlns="http://www.w3.org/2000/svg">
<g clip-path="url(#clip0_0_241)">
<path fill-rule="evenodd" clip-rule="evenodd" d="M47.4332 12.988L30.7464 1.56867C27.6885 -0.522889 23.6594 -0.522889 20.6003 1.56867L3.9124 12.988C1.46463 14.662 6.12095e-05 17.4371 6.12095e-05 20.4023V42.0135C6.12095e-05 46.9764 4.02312 50.9995 8.98606 50.9995H42.3607C47.3237 50.9995 51.3467 46.9764 51.3467 42.0135V20.4023C51.3467 17.4371 49.8821 14.662 47.4344 12.988H47.4332Z" fill="url(#paint0_linear_0_241)"/>
<path d="M37.9418 22.7176C39.0116 21.6513 39.7132 20.2722 39.9419 18.7788C40.0646 18.0122 39.8107 17.2348 39.2595 16.6884C38.7144 16.1372 37.9357 15.8833 37.1704 16.0073C35.6781 16.2359 34.2978 16.9375 33.2315 18.0074L29.9077 21.3312L27.9172 20.898C28.2626 20.3709 28.1928 19.6741 27.7475 19.2276C27.2288 18.7102 26.3877 18.7102 25.869 19.2276L24.8641 20.2325L22.5066 19.7186L22.6715 19.5538C23.1889 19.0351 23.1889 18.1951 22.6715 17.6764C22.172 17.1746 21.2959 17.1746 20.7941 17.6764L19.4234 19.0471L14.5423 17.9845C14.1596 17.9003 13.7601 18.0182 13.4833 18.295L12.5013 19.277C12.2438 19.5345 12.1246 19.8907 12.1752 20.2518C12.2257 20.6128 12.4387 20.9221 12.7588 21.099L24.2215 27.4314L18.4198 33.7795L12.5266 34.0924L11.6144 35.0046C11.2967 35.3223 11.2967 35.8374 11.6144 36.1551C11.6962 36.2369 11.7937 36.2995 11.9008 36.3404L17.4787 38.4705L19.6099 44.0495C19.7303 44.366 20.0336 44.5742 20.3717 44.573C20.5847 44.573 20.7917 44.4888 20.947 44.3336L21.8579 43.4226L22.1708 37.5294L28.5189 31.7276L34.8465 43.1855C35.0234 43.5056 35.3315 43.7186 35.6926 43.7691C36.0512 43.8209 36.4122 43.6993 36.6673 43.443L37.6505 42.461C37.9285 42.1842 38.0453 41.7847 37.961 41.402L36.8996 36.5257L38.2715 35.1538C38.5218 34.9035 38.6602 34.5689 38.6602 34.2139C38.6602 33.8589 38.5218 33.5256 38.2715 33.2741C37.7528 32.7566 36.9116 32.7566 36.3929 33.2741L36.2281 33.4389L35.7154 31.0814L36.7215 30.0753C36.9718 29.825 37.1102 29.4905 37.1102 29.1355C37.1102 28.7805 36.9718 28.4471 36.7215 28.1968C36.2834 27.7587 35.5614 27.7034 35.0511 28.0295L34.6179 26.0366L37.9418 22.7128V22.7176Z" fill="white"/>
</g>
<defs>
<linearGradient id="paint0_linear_0_241" x1="26.2751" y1="-3.77774" x2="35.9644" y2="49.2662" gradientUnits="userSpaceOnUse">
<stop stop-color="#FE922B"/>
<stop offset="1" stop-color="#FF5B25"/>
</linearGradient>
<clipPath id="clip0_0_241">
<rect width="51.2004" height="50.8548" fill="white" transform="scale(1.00286)"/>
</clipPath>
</defs>
</svg>
