<svg width="187" height="175" viewBox="0 0 187 175" fill="none" xmlns="http://www.w3.org/2000/svg">
<path fill-rule="evenodd" clip-rule="evenodd" d="M2.19147 175C0.985242 175 1.17449e-08 174.015 2.61241e-08 172.809C4.06131e-08 171.594 0.985242 170.619 2.19147 170.619C3.3977 170.619 4.38295 171.603 4.38295 172.809C4.38295 174.015 3.3977 175 2.19147 175ZM2.19147 150.626C0.985243 150.626 3.02293e-07 149.65 3.16782e-07 148.435C3.31161e-07 147.229 0.985243 146.244 2.19147 146.244C3.3977 146.244 4.38295 147.229 4.38295 148.435C4.38295 149.641 3.3977 150.626 2.19147 150.626ZM6.0744e-07 124.061C5.92951e-07 125.276 0.985243 126.252 2.19147 126.252C3.3977 126.252 4.38295 125.267 4.38295 124.061C4.38295 122.855 3.3977 121.87 2.19147 121.87C0.985243 121.87 6.2182e-07 122.855 6.0744e-07 124.061ZM2.19147 101.878C0.985243 101.878 8.83609e-07 100.902 8.98098e-07 99.687C9.12478e-07 98.4812 0.985243 97.4963 2.19147 97.4963C3.39771 97.4963 4.38295 98.4812 4.38295 99.687C4.38295 100.893 3.39771 101.878 2.19147 101.878ZM1.18876e-06 75.3129C1.17427e-06 76.5279 0.985243 77.5036 2.19147 77.5036C3.39771 77.5036 4.38295 76.5187 4.38295 75.3129C4.38295 74.1071 3.39771 73.1222 2.19147 73.1222C0.985243 73.1222 1.20314e-06 74.1071 1.18876e-06 75.3129ZM2.19147 53.1296C0.985244 53.1296 1.46493e-06 52.1538 1.47941e-06 50.9388C1.49379e-06 49.733 0.985244 48.7481 2.19147 48.7481C3.39771 48.7481 4.38295 49.733 4.38295 50.9388C4.38295 52.1446 3.39771 53.1296 2.19147 53.1296ZM1.77007e-06 26.5647C1.75558e-06 27.7798 0.985244 28.7555 2.19148 28.7555C3.39771 28.7555 4.38295 27.7706 4.38295 26.5647C4.38295 25.3589 3.39771 24.374 2.19148 24.374C0.985244 24.374 1.78445e-06 25.3589 1.77007e-06 26.5647ZM2.19148 -6.10123e-05C3.39771 -6.09979e-05 4.38295 0.975638 4.38295 2.19065C4.38295 3.39647 3.39771 4.38138 2.19148 4.38138C0.985244 4.38138 2.04635e-06 3.39647 2.06073e-06 2.19065C2.07511e-06 0.984839 0.985244 -6.10266e-05 2.19148 -6.10123e-05ZM22.7803 172.809C22.7803 174.024 23.7655 175 24.9717 175C26.178 175 27.1632 174.015 27.1632 172.809C27.1632 171.603 26.178 170.619 24.9717 170.619C23.7655 170.619 22.7803 171.603 22.7803 172.809ZM24.9717 150.626C23.7655 150.626 22.7803 149.65 22.7803 148.435C22.7803 147.229 23.7655 146.244 24.9717 146.244C26.178 146.244 27.1632 147.229 27.1632 148.435C27.1632 149.641 26.178 150.626 24.9717 150.626ZM22.7803 124.061C22.7803 125.276 23.7655 126.252 24.9717 126.252C26.178 126.252 27.1632 125.267 27.1632 124.061C27.1632 122.855 26.178 121.87 24.9717 121.87C23.7655 121.87 22.7803 122.855 22.7803 124.061ZM24.9717 101.878C23.7655 101.878 22.7803 100.902 22.7803 99.687C22.7803 98.4812 23.7655 97.4963 24.9717 97.4963C26.178 97.4963 27.1632 98.4812 27.1632 99.687C27.1632 100.893 26.178 101.878 24.9717 101.878ZM22.7803 75.3129C22.7803 76.5279 23.7655 77.5036 24.9717 77.5036C26.178 77.5036 27.1632 76.5187 27.1632 75.3129C27.1632 74.1071 26.178 73.1222 24.9717 73.1222C23.7655 73.1222 22.7803 74.1071 22.7803 75.3129ZM24.9717 53.1296C23.7655 53.1296 22.7803 52.1539 22.7803 50.9388C22.7803 49.733 23.7655 48.7481 24.9717 48.7481C26.178 48.7481 27.1632 49.733 27.1632 50.9388C27.1632 52.1446 26.178 53.1296 24.9717 53.1296ZM22.7803 26.5647C22.7803 27.7798 23.7655 28.7555 24.9717 28.7555C26.178 28.7555 27.1632 27.7706 27.1632 26.5647C27.1632 25.3589 26.178 24.374 24.9717 24.374C23.7655 24.374 22.7803 25.3589 22.7803 26.5647ZM24.9717 4.38138C23.7655 4.38138 22.7803 3.40568 22.7803 2.19065C22.7803 0.984839 23.7655 -6.0755e-05 24.9717 -6.07406e-05C26.178 -6.07262e-05 27.1632 0.98484 27.1632 2.19065C27.1632 3.39647 26.178 4.38138 24.9717 4.38138ZM45.5697 172.809C45.5697 174.024 46.555 175 47.7612 175C48.9674 175 49.9527 174.015 49.9527 172.809C49.9527 171.603 48.9674 170.619 47.7612 170.619C46.555 170.619 45.5697 171.603 45.5697 172.809ZM47.7612 150.626C46.555 150.626 45.5697 149.65 45.5697 148.435C45.5697 147.229 46.555 146.244 47.7612 146.244C48.9674 146.244 49.9527 147.229 49.9527 148.435C49.9527 149.641 48.9674 150.626 47.7612 150.626ZM45.5697 124.061C45.5697 125.276 46.555 126.252 47.7612 126.252C48.9674 126.252 49.9527 125.267 49.9527 124.061C49.9527 122.855 48.9674 121.87 47.7612 121.87C46.555 121.87 45.5697 122.855 45.5697 124.061ZM47.7612 101.878C46.555 101.878 45.5697 100.902 45.5697 99.687C45.5697 98.4812 46.555 97.4963 47.7612 97.4963C48.9674 97.4963 49.9527 98.4812 49.9527 99.687C49.9527 100.893 48.9674 101.878 47.7612 101.878ZM45.5697 75.3129C45.5697 76.5279 46.555 77.5036 47.7612 77.5036C48.9674 77.5036 49.9527 76.5187 49.9527 75.3129C49.9527 74.1071 48.9674 73.1222 47.7612 73.1222C46.555 73.1222 45.5697 74.1071 45.5697 75.3129ZM47.7612 53.1296C46.555 53.1296 45.5697 52.1539 45.5697 50.9388C45.5697 49.733 46.555 48.7481 47.7612 48.7481C48.9674 48.7481 49.9527 49.733 49.9527 50.9388C49.9527 52.1446 48.9674 53.1296 47.7612 53.1296ZM45.5697 26.5647C45.5697 27.7798 46.555 28.7555 47.7612 28.7555C48.9674 28.7555 49.9527 27.7706 49.9527 26.5647C49.9527 25.3589 48.9674 24.374 47.7612 24.374C46.555 24.374 45.5697 25.3589 45.5697 26.5647ZM47.7612 4.38138C46.555 4.38138 45.5697 3.40568 45.5697 2.19065C45.5697 0.98484 46.555 -6.04832e-05 47.7612 -6.04688e-05C48.9674 -6.04545e-05 49.9527 0.98484 49.9527 2.19065C49.9527 3.39647 48.9674 4.38138 47.7612 4.38138ZM68.35 172.809C68.35 174.024 69.3352 175 70.5415 175C71.7477 175 72.7329 174.015 72.7329 172.809C72.7329 171.603 71.7477 170.619 70.5415 170.619C69.3352 170.619 68.35 171.603 68.35 172.809ZM70.5415 150.626C69.3352 150.626 68.35 149.65 68.35 148.435C68.35 147.229 69.3352 146.244 70.5415 146.244C71.7477 146.244 72.7329 147.229 72.7329 148.435C72.7329 149.641 71.7477 150.626 70.5415 150.626ZM68.35 124.061C68.35 125.276 69.3352 126.252 70.5415 126.252C71.7477 126.252 72.7329 125.267 72.7329 124.061C72.7329 122.855 71.7477 121.87 70.5415 121.87C69.3352 121.87 68.35 122.855 68.35 124.061ZM70.5415 101.878C69.3352 101.878 68.35 100.902 68.35 99.687C68.35 98.4812 69.3352 97.4963 70.5415 97.4963C71.7477 97.4963 72.7329 98.4812 72.7329 99.687C72.7329 100.893 71.7477 101.878 70.5415 101.878ZM68.35 75.3129C68.35 76.5279 69.3352 77.5036 70.5415 77.5036C71.7477 77.5036 72.7329 76.5187 72.7329 75.3129C72.7329 74.1071 71.7477 73.1222 70.5415 73.1222C69.3352 73.1222 68.35 74.1071 68.35 75.3129ZM70.5415 53.1296C69.3352 53.1296 68.35 52.1539 68.35 50.9388C68.35 49.733 69.3352 48.7481 70.5415 48.7481C71.7477 48.7481 72.7329 49.733 72.7329 50.9388C72.7329 52.1446 71.7477 53.1296 70.5415 53.1296ZM68.35 26.5647C68.35 27.7798 69.3352 28.7555 70.5415 28.7555C71.7477 28.7555 72.7329 27.7706 72.7329 26.5647C72.7329 25.3589 71.7477 24.374 70.5415 24.374C69.3352 24.374 68.35 25.3589 68.35 26.5647ZM70.5415 4.38138C69.3352 4.38138 68.35 3.40568 68.35 2.19065C68.35 0.98484 69.3352 -6.02116e-05 70.5415 -6.01972e-05C71.7477 -6.01828e-05 72.7329 0.98484 72.7329 2.19065C72.7329 3.39647 71.7477 4.38138 70.5415 4.38138ZM91.1303 172.809C91.1303 174.024 92.1155 175 93.3217 175C94.528 175 95.5132 174.015 95.5132 172.809C95.5132 171.603 94.528 170.619 93.3217 170.619C92.1155 170.619 91.1303 171.603 91.1303 172.809ZM93.3217 150.626C92.1155 150.626 91.1303 149.65 91.1303 148.435C91.1303 147.229 92.1155 146.244 93.3217 146.244C94.528 146.244 95.5132 147.229 95.5132 148.435C95.5132 149.641 94.528 150.626 93.3217 150.626ZM91.1303 124.061C91.1303 125.276 92.1155 126.252 93.3217 126.252C94.528 126.252 95.5132 125.267 95.5132 124.061C95.5132 122.855 94.528 121.87 93.3217 121.87C92.1155 121.87 91.1303 122.855 91.1303 124.061ZM93.3217 101.878C92.1155 101.878 91.1303 100.902 91.1303 99.687C91.1303 98.4812 92.1155 97.4963 93.3217 97.4963C94.528 97.4963 95.5132 98.4812 95.5132 99.687C95.5132 100.893 94.528 101.878 93.3217 101.878ZM91.1303 75.3129C91.1303 76.5279 92.1155 77.5036 93.3217 77.5036C94.528 77.5036 95.5132 76.5187 95.5132 75.3129C95.5132 74.1071 94.528 73.1222 93.3217 73.1222C92.1155 73.1222 91.1303 74.1071 91.1303 75.3129ZM93.3217 53.1296C92.1155 53.1296 91.1303 52.1539 91.1303 50.9388C91.1303 49.733 92.1155 48.7481 93.3217 48.7481C94.528 48.7481 95.5132 49.733 95.5132 50.9388C95.5132 52.1446 94.528 53.1296 93.3217 53.1296ZM91.1303 26.5647C91.1303 27.7798 92.1155 28.7555 93.3217 28.7555C94.528 28.7555 95.5132 27.7706 95.5132 26.5647C95.5132 25.3589 94.528 24.374 93.3217 24.374C92.1155 24.374 91.1303 25.3589 91.1303 26.5647ZM93.3217 4.38138C92.1155 4.38138 91.1303 3.40568 91.1303 2.19065C91.1303 0.98484 92.1155 -5.99399e-05 93.3217 -5.99255e-05C94.528 -5.99112e-05 95.5132 0.98484 95.5132 2.19065C95.5132 3.39647 94.528 4.38138 93.3217 4.38138ZM113.92 172.809C113.92 174.024 114.905 175 116.111 175C117.317 175 118.303 174.015 118.303 172.809C118.303 171.603 117.317 170.619 116.111 170.619C114.905 170.619 113.92 171.603 113.92 172.809ZM116.111 150.626C114.905 150.626 113.92 149.65 113.92 148.435C113.92 147.229 114.905 146.244 116.111 146.244C117.317 146.244 118.303 147.229 118.303 148.435C118.303 149.641 117.317 150.626 116.111 150.626ZM113.92 124.061C113.92 125.276 114.905 126.252 116.111 126.252C117.317 126.252 118.303 125.267 118.303 124.061C118.303 122.855 117.317 121.87 116.111 121.87C114.905 121.87 113.92 122.855 113.92 124.061ZM116.111 101.878C114.905 101.878 113.92 100.902 113.92 99.687C113.92 98.4812 114.905 97.4963 116.111 97.4963C117.317 97.4963 118.303 98.4812 118.303 99.687C118.303 100.893 117.317 101.878 116.111 101.878ZM113.92 75.3129C113.92 76.5279 114.905 77.5036 116.111 77.5036C117.317 77.5036 118.303 76.5187 118.303 75.3129C118.303 74.1071 117.317 73.1222 116.111 73.1222C114.905 73.1222 113.92 74.1071 113.92 75.3129ZM116.111 53.1296C114.905 53.1296 113.92 52.1539 113.92 50.9388C113.92 49.733 114.905 48.7481 116.111 48.7481C117.317 48.7481 118.303 49.733 118.303 50.9388C118.303 52.1446 117.317 53.1296 116.111 53.1296ZM113.92 26.5647C113.92 27.7798 114.905 28.7555 116.111 28.7555C117.317 28.7555 118.303 27.7706 118.303 26.5647C118.303 25.3589 117.317 24.374 116.111 24.374C114.905 24.374 113.92 25.3589 113.92 26.5647ZM116.111 4.38138C114.905 4.38138 113.92 3.40568 113.92 2.19065C113.92 0.984841 114.905 -5.96682e-05 116.111 -5.96538e-05C117.317 -5.96394e-05 118.303 0.984841 118.303 2.19065C118.303 3.39647 117.317 4.38138 116.111 4.38138ZM136.7 172.809C136.7 174.024 137.685 175 138.891 175C140.098 175 141.083 174.015 141.083 172.809C141.083 171.603 140.098 170.619 138.891 170.619C137.685 170.619 136.7 171.603 136.7 172.809ZM138.891 150.626C137.685 150.626 136.7 149.65 136.7 148.435C136.7 147.229 137.685 146.244 138.891 146.244C140.098 146.244 141.083 147.229 141.083 148.435C141.083 149.641 140.098 150.626 138.891 150.626ZM136.7 124.061C136.7 125.276 137.685 126.252 138.891 126.252C140.098 126.252 141.083 125.267 141.083 124.061C141.083 122.855 140.098 121.87 138.891 121.87C137.685 121.87 136.7 122.855 136.7 124.061ZM138.891 101.878C137.685 101.878 136.7 100.902 136.7 99.687C136.7 98.4812 137.685 97.4963 138.891 97.4963C140.098 97.4963 141.083 98.4812 141.083 99.687C141.083 100.893 140.098 101.878 138.891 101.878ZM136.7 75.3129C136.7 76.5279 137.685 77.5036 138.891 77.5036C140.098 77.5036 141.083 76.5187 141.083 75.3129C141.083 74.1071 140.098 73.1222 138.891 73.1222C137.685 73.1222 136.7 74.1071 136.7 75.3129ZM138.891 53.1296C137.685 53.1296 136.7 52.1539 136.7 50.9388C136.7 49.733 137.685 48.7481 138.891 48.7481C140.098 48.7481 141.083 49.733 141.083 50.9388C141.083 52.1446 140.098 53.1296 138.891 53.1296ZM136.7 26.5647C136.7 27.7798 137.685 28.7555 138.891 28.7555C140.098 28.7555 141.083 27.7706 141.083 26.5647C141.083 25.3589 140.098 24.374 138.891 24.374C137.685 24.374 136.7 25.3589 136.7 26.5647ZM138.891 4.38138C137.685 4.38138 136.7 3.40568 136.7 2.19065C136.7 0.984841 137.685 -5.93965e-05 138.891 -5.93821e-05C140.098 -5.93677e-05 141.083 0.984841 141.083 2.19065C141.083 3.39647 140.098 4.38138 138.891 4.38138ZM159.48 172.809C159.48 174.024 160.466 175 161.672 175C162.878 175 163.863 174.015 163.863 172.809C163.863 171.603 162.878 170.619 161.672 170.619C160.466 170.619 159.48 171.603 159.48 172.809ZM161.672 150.626C160.466 150.626 159.48 149.65 159.48 148.435C159.48 147.229 160.466 146.244 161.672 146.244C162.878 146.244 163.863 147.229 163.863 148.435C163.863 149.641 162.878 150.626 161.672 150.626ZM159.48 124.061C159.48 125.276 160.466 126.252 161.672 126.252C162.878 126.252 163.863 125.267 163.863 124.061C163.863 122.855 162.878 121.87 161.672 121.87C160.466 121.87 159.48 122.855 159.48 124.061ZM161.672 101.878C160.466 101.878 159.48 100.902 159.48 99.687C159.48 98.4812 160.466 97.4963 161.672 97.4963C162.878 97.4963 163.863 98.4812 163.863 99.687C163.863 100.893 162.878 101.878 161.672 101.878ZM159.48 75.3129C159.48 76.5279 160.466 77.5036 161.672 77.5036C162.878 77.5036 163.863 76.5187 163.863 75.3129C163.863 74.1071 162.878 73.1222 161.672 73.1222C160.466 73.1222 159.48 74.1071 159.48 75.3129ZM161.672 53.1296C160.466 53.1296 159.48 52.1539 159.48 50.9388C159.48 49.733 160.466 48.7481 161.672 48.7481C162.878 48.7481 163.863 49.733 163.863 50.9388C163.863 52.1447 162.878 53.1296 161.672 53.1296ZM159.48 26.5647C159.48 27.7798 160.466 28.7555 161.672 28.7555C162.878 28.7555 163.863 27.7706 163.863 26.5647C163.863 25.3589 162.878 24.374 161.672 24.374C160.466 24.374 159.48 25.3589 159.48 26.5647ZM161.672 4.38138C160.466 4.38138 159.48 3.40568 159.48 2.19065C159.48 0.984841 160.466 -5.91249e-05 161.672 -5.91105e-05C162.878 -5.90961e-05 163.863 0.984841 163.863 2.19065C163.863 3.39647 162.878 4.38138 161.672 4.38138ZM182.27 172.809C182.27 174.024 183.255 175 184.461 175C185.667 175 186.653 174.015 186.653 172.809C186.653 171.603 185.667 170.619 184.461 170.619C183.255 170.619 182.27 171.603 182.27 172.809ZM184.461 150.626C183.255 150.626 182.27 149.65 182.27 148.435C182.27 147.229 183.255 146.244 184.461 146.244C185.667 146.244 186.653 147.229 186.653 148.435C186.653 149.641 185.667 150.626 184.461 150.626ZM182.27 124.061C182.27 125.276 183.255 126.252 184.461 126.252C185.667 126.252 186.653 125.267 186.653 124.061C186.653 122.855 185.667 121.87 184.461 121.87C183.255 121.87 182.27 122.855 182.27 124.061ZM184.461 101.878C183.255 101.878 182.27 100.902 182.27 99.687C182.27 98.4812 183.255 97.4963 184.461 97.4963C185.667 97.4963 186.653 98.4812 186.653 99.687C186.653 100.893 185.667 101.878 184.461 101.878ZM182.27 75.3129C182.27 76.5279 183.255 77.5036 184.461 77.5036C185.667 77.5036 186.653 76.5187 186.653 75.3129C186.653 74.1071 185.667 73.1222 184.461 73.1222C183.255 73.1222 182.27 74.1071 182.27 75.3129ZM184.461 53.1296C183.255 53.1296 182.27 52.1539 182.27 50.9388C182.27 49.733 183.255 48.7481 184.461 48.7481C185.667 48.7481 186.653 49.733 186.653 50.9388C186.653 52.1447 185.667 53.1296 184.461 53.1296ZM182.27 26.5647C182.27 27.7798 183.255 28.7555 184.461 28.7555C185.667 28.7555 186.653 27.7706 186.653 26.5647C186.653 25.3589 185.667 24.374 184.461 24.374C183.255 24.374 182.27 25.3589 182.27 26.5647ZM184.461 4.38138C183.255 4.38138 182.27 3.40569 182.27 2.19065C182.27 0.984841 183.255 -5.88531e-05 184.461 -5.88387e-05C185.667 -5.88243e-05 186.653 0.984841 186.653 2.19065C186.653 3.39647 185.667 4.38138 184.461 4.38138Z" fill="url(#paint0_radial_24_24154)"/>
<defs>
<radialGradient id="paint0_radial_24_24154" cx="0" cy="0" r="1" gradientUnits="userSpaceOnUse" gradientTransform="translate(31.2449 91.6277) rotate(-90) scale(114.875 141.739)">
<stop offset="0.02" stop-color="#FDC442"/>
<stop offset="0.18" stop-color="#FCAD3D"/>
<stop offset="0.39" stop-color="#FB9738"/>
<stop offset="0.51" stop-color="#FB8F37"/>
<stop offset="0.62" stop-color="#FB8534"/>
<stop offset="0.85" stop-color="#FC7330"/>
</radialGradient>
</defs>
</svg>
