<svg width="188" height="201" viewBox="0 0 188 201" fill="none" xmlns="http://www.w3.org/2000/svg">
<path fill-rule="evenodd" clip-rule="evenodd" d="M0 2.35992C0 1.06097 1.05801 0 2.35334 0C3.65855 0 4.70667 1.06097 4.70667 2.35992C4.70667 3.65887 3.64866 4.71985 2.35334 4.71985C1.05801 4.71985 0 3.65887 0 2.35992ZM26.1833 2.35992C26.1833 1.06097 27.2315 0 28.5367 0C29.832 0 30.89 1.06097 30.89 2.35992C30.89 3.65887 29.832 4.71985 28.5367 4.71985C27.2414 4.71985 26.1833 3.65887 26.1833 2.35992ZM54.72 0C53.4148 0 52.3667 1.06097 52.3667 2.35992C52.3667 3.65887 53.4247 4.71985 54.72 4.71985C56.0154 4.71985 57.0734 3.65887 57.0734 2.35992C57.0734 1.06097 56.0154 0 54.72 0ZM78.55 2.35992C78.55 1.06097 79.5982 0 80.9034 0C82.1987 0 83.2567 1.06097 83.2567 2.35992C83.2567 3.65887 82.1987 4.71985 80.9034 4.71985C79.6081 4.71985 78.55 3.65887 78.55 2.35992ZM107.087 0C105.782 0 104.733 1.06097 104.733 2.35992C104.733 3.65887 105.791 4.71985 107.087 4.71985C108.382 4.71985 109.44 3.65887 109.44 2.35992C109.44 1.06097 108.382 0 107.087 0ZM130.917 2.35992C130.917 1.06097 131.965 0 133.27 0C134.565 0 135.623 1.06097 135.623 2.35992C135.623 3.65887 134.565 4.71985 133.27 4.71985C131.975 4.71985 130.917 3.65887 130.917 2.35992ZM159.453 0C158.148 0 157.1 1.06097 157.1 2.35992C157.1 3.65887 158.158 4.71985 159.453 4.71985C160.749 4.71985 161.807 3.65887 161.807 2.35992C161.807 1.06097 160.749 0 159.453 0ZM187.99 2.35992C187.99 3.65887 186.942 4.71985 185.637 4.71985C184.341 4.71985 183.283 3.65887 183.283 2.35992C183.283 1.06097 184.341 0 185.637 0C186.932 0 187.99 1.06097 187.99 2.35992ZM2.35334 24.5313C1.04813 24.5313 0 25.5923 0 26.8912C0 28.1902 1.05801 29.2511 2.35334 29.2511C3.64866 29.2511 4.70667 28.1902 4.70667 26.8912C4.70667 25.5923 3.64866 24.5313 2.35334 24.5313ZM26.1833 26.8912C26.1833 25.5923 27.2315 24.5313 28.5367 24.5313C29.832 24.5313 30.89 25.5923 30.89 26.8912C30.89 28.1902 29.832 29.2511 28.5367 29.2511C27.2414 29.2511 26.1833 28.1902 26.1833 26.8912ZM54.72 24.5313C53.4148 24.5313 52.3667 25.5923 52.3667 26.8912C52.3667 28.1902 53.4247 29.2511 54.72 29.2511C56.0154 29.2511 57.0734 28.1902 57.0734 26.8912C57.0734 25.5923 56.0154 24.5313 54.72 24.5313ZM78.55 26.8912C78.55 25.5923 79.5982 24.5313 80.9034 24.5313C82.1987 24.5313 83.2567 25.5923 83.2567 26.8912C83.2567 28.1902 82.1987 29.2511 80.9034 29.2511C79.6081 29.2511 78.55 28.1902 78.55 26.8912ZM107.087 24.5313C105.782 24.5313 104.733 25.5923 104.733 26.8912C104.733 28.1902 105.791 29.2511 107.087 29.2511C108.382 29.2511 109.44 28.1902 109.44 26.8912C109.44 25.5923 108.382 24.5313 107.087 24.5313ZM130.917 26.8912C130.917 25.5923 131.965 24.5313 133.27 24.5313C134.565 24.5313 135.623 25.5923 135.623 26.8912C135.623 28.1902 134.565 29.2511 133.27 29.2511C131.975 29.2511 130.917 28.1902 130.917 26.8912ZM159.453 24.5313C158.148 24.5313 157.1 25.5923 157.1 26.8912C157.1 28.1902 158.158 29.2511 159.453 29.2511C160.749 29.2511 161.807 28.1902 161.807 26.8912C161.807 25.5923 160.749 24.5313 159.453 24.5313ZM183.283 26.8912C183.283 25.5923 184.332 24.5313 185.637 24.5313C186.932 24.5313 187.99 25.5923 187.99 26.8912C187.99 28.1902 186.932 29.2511 185.637 29.2511C184.341 29.2511 183.283 28.1902 183.283 26.8912ZM2.35334 49.0725C1.04813 49.0725 0 50.1335 0 51.4324C0 52.7314 1.05801 53.7924 2.35334 53.7924C3.64866 53.7924 4.70667 52.7314 4.70667 51.4324C4.70667 50.1335 3.64866 49.0725 2.35334 49.0725ZM26.1833 51.4324C26.1833 50.1335 27.2315 49.0725 28.5367 49.0725C29.832 49.0725 30.89 50.1335 30.89 51.4324C30.89 52.7314 29.832 53.7924 28.5367 53.7924C27.2414 53.7924 26.1833 52.7314 26.1833 51.4324ZM54.72 49.0725C53.4148 49.0725 52.3667 50.1335 52.3667 51.4324C52.3667 52.7314 53.4247 53.7924 54.72 53.7924C56.0154 53.7924 57.0734 52.7314 57.0734 51.4324C57.0734 50.1335 56.0154 49.0725 54.72 49.0725ZM78.55 51.4324C78.55 50.1335 79.5982 49.0725 80.9034 49.0725C82.1987 49.0725 83.2567 50.1335 83.2567 51.4324C83.2567 52.7314 82.1987 53.7924 80.9034 53.7924C79.6081 53.7924 78.55 52.7314 78.55 51.4324ZM107.087 49.0725C105.782 49.0725 104.733 50.1335 104.733 51.4324C104.733 52.7314 105.791 53.7924 107.087 53.7924C108.382 53.7924 109.44 52.7314 109.44 51.4324C109.44 50.1335 108.382 49.0725 107.087 49.0725ZM130.917 51.4324C130.917 50.1335 131.965 49.0725 133.27 49.0725C134.565 49.0725 135.623 50.1335 135.623 51.4324C135.623 52.7314 134.565 53.7924 133.27 53.7924C131.975 53.7924 130.917 52.7314 130.917 51.4324ZM159.453 49.0725C158.148 49.0725 157.1 50.1335 157.1 51.4324C157.1 52.7314 158.158 53.7924 159.453 53.7924C160.749 53.7924 161.807 52.7314 161.807 51.4324C161.807 50.1335 160.749 49.0725 159.453 49.0725ZM183.283 51.4324C183.283 50.1335 184.332 49.0725 185.637 49.0725C186.932 49.0725 187.99 50.1335 187.99 51.4324C187.99 52.7314 186.932 53.7924 185.637 53.7924C184.341 53.7924 183.283 52.7314 183.283 51.4324ZM2.35334 73.6038C1.04813 73.6038 0 74.6648 0 75.9637C0 77.2627 1.05801 78.3236 2.35334 78.3236C3.64866 78.3236 4.70667 77.2627 4.70667 75.9637C4.70667 74.6648 3.64866 73.6038 2.35334 73.6038ZM26.1833 75.9637C26.1833 74.6648 27.2315 73.6038 28.5367 73.6038C29.832 73.6038 30.89 74.6648 30.89 75.9637C30.89 77.2627 29.832 78.3236 28.5367 78.3236C27.2414 78.3236 26.1833 77.2627 26.1833 75.9637ZM54.72 73.6038C53.4148 73.6038 52.3667 74.6648 52.3667 75.9637C52.3667 77.2627 53.4247 78.3236 54.72 78.3236C56.0154 78.3236 57.0734 77.2627 57.0734 75.9637C57.0734 74.6648 56.0154 73.6038 54.72 73.6038ZM78.55 75.9637C78.55 74.6648 79.5982 73.6038 80.9034 73.6038C82.1987 73.6038 83.2567 74.6648 83.2567 75.9637C83.2567 77.2627 82.1987 78.3236 80.9034 78.3236C79.6081 78.3236 78.55 77.2627 78.55 75.9637ZM107.087 73.6038C105.782 73.6038 104.733 74.6648 104.733 75.9637C104.733 77.2627 105.791 78.3236 107.087 78.3236C108.382 78.3236 109.44 77.2627 109.44 75.9637C109.44 74.6648 108.382 73.6038 107.087 73.6038ZM130.917 75.9637C130.917 74.6648 131.965 73.6038 133.27 73.6038C134.565 73.6038 135.623 74.6648 135.623 75.9637C135.623 77.2627 134.565 78.3236 133.27 78.3236C131.975 78.3236 130.917 77.2627 130.917 75.9637ZM159.453 73.6038C158.148 73.6038 157.1 74.6648 157.1 75.9637C157.1 77.2627 158.158 78.3236 159.453 78.3236C160.749 78.3236 161.807 77.2627 161.807 75.9637C161.807 74.6648 160.749 73.6038 159.453 73.6038ZM183.283 75.9637C183.283 74.6648 184.332 73.6038 185.637 73.6038C186.932 73.6038 187.99 74.6648 187.99 75.9637C187.99 77.2627 186.932 78.3236 185.637 78.3236C184.341 78.3236 183.283 77.2627 183.283 75.9637ZM2.35334 98.1351C1.04813 98.1351 0 99.1961 0 100.495C0 101.794 1.05801 102.855 2.35334 102.855C3.64866 102.855 4.70667 101.794 4.70667 100.495C4.70667 99.1961 3.64866 98.1351 2.35334 98.1351ZM26.1833 100.495C26.1833 99.1961 27.2315 98.1351 28.5367 98.1351C29.832 98.1351 30.89 99.1961 30.89 100.495C30.89 101.794 29.832 102.855 28.5367 102.855C27.2414 102.855 26.1833 101.794 26.1833 100.495ZM54.72 98.1351C53.4148 98.1351 52.3667 99.1961 52.3667 100.495C52.3667 101.794 53.4247 102.855 54.72 102.855C56.0154 102.855 57.0734 101.794 57.0734 100.495C57.0734 99.1961 56.0154 98.1351 54.72 98.1351ZM78.55 100.495C78.55 99.1961 79.5982 98.1351 80.9034 98.1351C82.1987 98.1351 83.2567 99.1961 83.2567 100.495C83.2567 101.794 82.1987 102.855 80.9034 102.855C79.6081 102.855 78.55 101.794 78.55 100.495ZM107.087 98.1351C105.782 98.1351 104.733 99.1961 104.733 100.495C104.733 101.794 105.791 102.855 107.087 102.855C108.382 102.855 109.44 101.794 109.44 100.495C109.44 99.1961 108.382 98.1351 107.087 98.1351ZM130.917 100.495C130.917 99.1961 131.965 98.1351 133.27 98.1351C134.565 98.1351 135.623 99.1961 135.623 100.495C135.623 101.794 134.565 102.855 133.27 102.855C131.975 102.855 130.917 101.794 130.917 100.495ZM159.453 98.1351C158.148 98.1351 157.1 99.1961 157.1 100.495C157.1 101.794 158.158 102.855 159.453 102.855C160.749 102.855 161.807 101.794 161.807 100.495C161.807 99.1961 160.749 98.1351 159.453 98.1351ZM183.283 100.495C183.283 99.1961 184.332 98.1351 185.637 98.1351C186.932 98.1351 187.99 99.1961 187.99 100.495C187.99 101.794 186.932 102.855 185.637 102.855C184.341 102.855 183.283 101.794 183.283 100.495ZM2.35334 122.676C1.04813 122.676 0 123.737 0 125.036C0 126.335 1.05801 127.396 2.35334 127.396C3.64866 127.396 4.70667 126.335 4.70667 125.036C4.70667 123.737 3.64866 122.676 2.35334 122.676ZM26.1833 125.036C26.1833 123.737 27.2315 122.676 28.5367 122.676C29.832 122.676 30.89 123.737 30.89 125.036C30.89 126.335 29.832 127.396 28.5367 127.396C27.2414 127.396 26.1833 126.335 26.1833 125.036ZM54.72 122.676C53.4148 122.676 52.3667 123.737 52.3667 125.036C52.3667 126.335 53.4247 127.396 54.72 127.396C56.0154 127.396 57.0734 126.335 57.0734 125.036C57.0734 123.737 56.0154 122.676 54.72 122.676ZM78.55 125.036C78.55 123.737 79.5982 122.676 80.9034 122.676C82.1987 122.676 83.2567 123.737 83.2567 125.036C83.2567 126.335 82.1987 127.396 80.9034 127.396C79.6081 127.396 78.55 126.335 78.55 125.036ZM107.087 122.676C105.782 122.676 104.733 123.737 104.733 125.036C104.733 126.335 105.791 127.396 107.087 127.396C108.382 127.396 109.44 126.335 109.44 125.036C109.44 123.737 108.382 122.676 107.087 122.676ZM130.917 125.036C130.917 123.737 131.965 122.676 133.27 122.676C134.565 122.676 135.623 123.737 135.623 125.036C135.623 126.335 134.565 127.396 133.27 127.396C131.975 127.396 130.917 126.335 130.917 125.036ZM159.453 122.676C158.148 122.676 157.1 123.737 157.1 125.036C157.1 126.335 158.158 127.396 159.453 127.396C160.749 127.396 161.807 126.335 161.807 125.036C161.807 123.737 160.749 122.676 159.453 122.676ZM183.283 125.036C183.283 123.737 184.332 122.676 185.637 122.676C186.932 122.676 187.99 123.737 187.99 125.036C187.99 126.335 186.932 127.396 185.637 127.396C184.341 127.396 183.283 126.335 183.283 125.036ZM2.35334 147.208C1.04813 147.208 0 148.269 0 149.568C0 150.866 1.05801 151.927 2.35334 151.927C3.64866 151.927 4.70667 150.866 4.70667 149.568C4.70667 148.269 3.64866 147.208 2.35334 147.208ZM26.1833 149.568C26.1833 148.269 27.2315 147.208 28.5367 147.208C29.832 147.208 30.89 148.269 30.89 149.568C30.89 150.866 29.832 151.927 28.5367 151.927C27.2414 151.927 26.1833 150.866 26.1833 149.568ZM54.72 147.208C53.4148 147.208 52.3667 148.269 52.3667 149.568C52.3667 150.866 53.4247 151.927 54.72 151.927C56.0154 151.927 57.0734 150.866 57.0734 149.568C57.0734 148.269 56.0154 147.208 54.72 147.208ZM78.55 149.568C78.55 148.269 79.5982 147.208 80.9034 147.208C82.1987 147.208 83.2567 148.269 83.2567 149.568C83.2567 150.866 82.1987 151.927 80.9034 151.927C79.6081 151.927 78.55 150.866 78.55 149.568ZM107.087 147.208C105.782 147.208 104.733 148.269 104.733 149.568C104.733 150.866 105.791 151.927 107.087 151.927C108.382 151.927 109.44 150.866 109.44 149.568C109.44 148.269 108.382 147.208 107.087 147.208ZM130.917 149.568C130.917 148.269 131.965 147.208 133.27 147.208C134.565 147.208 135.623 148.269 135.623 149.568C135.623 150.866 134.565 151.927 133.27 151.927C131.975 151.927 130.917 150.866 130.917 149.568ZM159.453 147.208C158.148 147.208 157.1 148.269 157.1 149.568C157.1 150.866 158.158 151.927 159.453 151.927C160.749 151.927 161.807 150.866 161.807 149.568C161.807 148.269 160.749 147.208 159.453 147.208ZM183.283 149.568C183.283 148.269 184.332 147.208 185.637 147.208C186.932 147.208 187.99 148.269 187.99 149.568C187.99 150.866 186.932 151.927 185.637 151.927C184.341 151.927 183.283 150.866 183.283 149.568ZM2.35334 171.739C1.04813 171.739 0 172.8 0 174.099C0 175.398 1.05801 176.459 2.35334 176.459C3.64866 176.459 4.70667 175.398 4.70667 174.099C4.70667 172.8 3.64866 171.739 2.35334 171.739ZM26.1833 174.099C26.1833 172.8 27.2315 171.739 28.5367 171.739C29.832 171.739 30.89 172.8 30.89 174.099C30.89 175.398 29.832 176.459 28.5367 176.459C27.2414 176.459 26.1833 175.398 26.1833 174.099ZM54.72 171.739C53.4148 171.739 52.3667 172.8 52.3667 174.099C52.3667 175.398 53.4247 176.459 54.72 176.459C56.0154 176.459 57.0734 175.398 57.0734 174.099C57.0734 172.8 56.0154 171.739 54.72 171.739ZM78.55 174.099C78.55 172.8 79.5982 171.739 80.9034 171.739C82.1987 171.739 83.2567 172.8 83.2567 174.099C83.2567 175.398 82.1987 176.459 80.9034 176.459C79.6081 176.459 78.55 175.398 78.55 174.099ZM107.087 171.739C105.782 171.739 104.733 172.8 104.733 174.099C104.733 175.398 105.791 176.459 107.087 176.459C108.382 176.459 109.44 175.398 109.44 174.099C109.44 172.8 108.382 171.739 107.087 171.739ZM130.917 174.099C130.917 172.8 131.965 171.739 133.27 171.739C134.565 171.739 135.623 172.8 135.623 174.099C135.623 175.398 134.565 176.459 133.27 176.459C131.975 176.459 130.917 175.398 130.917 174.099ZM159.453 171.739C158.148 171.739 157.1 172.8 157.1 174.099C157.1 175.398 158.158 176.459 159.453 176.459C160.749 176.459 161.807 175.398 161.807 174.099C161.807 172.8 160.749 171.739 159.453 171.739ZM183.283 174.099C183.283 172.8 184.332 171.739 185.637 171.739C186.932 171.739 187.99 172.8 187.99 174.099C187.99 175.398 186.932 176.459 185.637 176.459C184.341 176.459 183.283 175.398 183.283 174.099ZM2.35334 196.28C1.04813 196.28 0 197.341 0 198.64C0 199.939 1.05801 201 2.35334 201C3.64866 201 4.70667 199.939 4.70667 198.64C4.70667 197.341 3.64866 196.28 2.35334 196.28ZM26.1833 198.64C26.1833 197.341 27.2315 196.28 28.5367 196.28C29.832 196.28 30.89 197.341 30.89 198.64C30.89 199.939 29.832 201 28.5367 201C27.2414 201 26.1833 199.939 26.1833 198.64ZM54.72 196.28C53.4148 196.28 52.3667 197.341 52.3667 198.64C52.3667 199.939 53.4247 201 54.72 201C56.0154 201 57.0734 199.939 57.0734 198.64C57.0734 197.341 56.0154 196.28 54.72 196.28ZM78.55 198.64C78.55 197.341 79.5982 196.28 80.9034 196.28C82.1987 196.28 83.2567 197.341 83.2567 198.64C83.2567 199.939 82.1987 201 80.9034 201C79.6081 201 78.55 199.939 78.55 198.64ZM107.087 196.28C105.782 196.28 104.733 197.341 104.733 198.64C104.733 199.939 105.791 201 107.087 201C108.382 201 109.44 199.939 109.44 198.64C109.44 197.341 108.382 196.28 107.087 196.28ZM130.917 198.64C130.917 197.341 131.965 196.28 133.27 196.28C134.565 196.28 135.623 197.341 135.623 198.64C135.623 199.939 134.565 201 133.27 201C131.975 201 130.917 199.939 130.917 198.64ZM159.453 196.28C158.148 196.28 157.1 197.341 157.1 198.64C157.1 199.939 158.158 201 159.453 201C160.749 201 161.807 199.939 161.807 198.64C161.807 197.341 160.749 196.28 159.453 196.28ZM183.283 198.64C183.283 197.341 184.332 196.28 185.637 196.28C186.932 196.28 187.99 197.341 187.99 198.64C187.99 199.939 186.932 201 185.637 201C184.341 201 183.283 199.939 183.283 198.64Z" fill="url(#paint0_radial_24_17205)"/>
<defs>
<radialGradient id="paint0_radial_24_17205" cx="0" cy="0" r="1" gradientUnits="userSpaceOnUse" gradientTransform="translate(89.561 33.6466) scale(123.402 152.634)">
<stop offset="0.02" stop-color="#FDC442"/>
<stop offset="0.18" stop-color="#FCAD3D"/>
<stop offset="0.39" stop-color="#FB9738"/>
<stop offset="0.51" stop-color="#FB8F37"/>
<stop offset="0.62" stop-color="#FB8534"/>
<stop offset="0.85" stop-color="#FC7330"/>
</radialGradient>
</defs>
</svg>
