<svg width="34" height="75" viewBox="0 0 34 75" fill="none" xmlns="http://www.w3.org/2000/svg">
<path fill-rule="evenodd" clip-rule="evenodd" d="M16 61.3877L3.08269 74.2982L3.08951 74.2982C2.38022 75.0007 1.23444 75.0007 0.531968 74.2982C-0.177323 73.5957 -0.177323 72.4499 0.531968 71.7475L15.9386 56.3272C16.6752 55.5906 17.8755 55.5906 18.6121 56.3272L33.4731 71.1814C34.1756 71.8907 34.1756 73.0365 33.4731 73.7389C32.7638 74.4414 31.618 74.4414 30.9156 73.7389L18.5575 61.3877C17.8482 60.6784 16.7024 60.6852 16 61.3877ZM16 42.7893C16.7025 42.0868 17.8483 42.08 18.5576 42.7893L30.9156 55.1405C31.6181 55.843 32.7639 55.843 33.4731 55.1405C34.1756 54.4312 34.1756 53.2922 33.4731 52.5829L18.6189 37.7288C17.8824 36.9922 16.682 36.9922 15.9455 37.7288L0.532018 53.149C-0.170453 53.8515 -0.170453 54.9973 0.532018 55.7066C1.23449 56.409 2.38027 56.409 3.08956 55.7066L16.0068 42.7893L16 42.7893ZM18.5576 24.1977C17.8483 23.4884 16.7025 23.4952 16 24.1977L16.0068 24.1977L3.08956 37.1149C2.38027 37.8174 1.23449 37.8174 0.532018 37.1149C-0.170453 36.4056 -0.170453 35.2667 0.532018 34.5574L15.9455 19.1371C16.682 18.4006 17.8824 18.4006 18.6189 19.1371L33.4731 33.9913C34.1756 34.7006 34.1756 35.8464 33.4731 36.5489C32.7639 37.2513 31.6181 37.2513 30.9156 36.5489L18.5576 24.1977ZM18.5576 5.60602C17.8483 4.89673 16.7025 4.90356 16 5.60602L16.0068 5.60602L3.08956 18.5233C2.38027 19.2258 1.23449 19.2258 0.532018 18.5233C-0.170453 17.814 -0.170453 16.6682 0.532018 15.9658L15.9455 0.552322C16.682 -0.184247 17.8824 -0.184247 18.6189 0.552322L33.4731 15.3997C34.1756 16.109 34.1756 17.2548 33.4731 17.9572C32.7639 18.6597 31.6181 18.6597 30.9156 17.9572L18.5576 5.60602Z" fill="url(#paint0_radial_24_16142)"/>
<defs>
<radialGradient id="paint0_radial_24_16142" cx="0" cy="0" r="1" gradientUnits="userSpaceOnUse" gradientTransform="translate(24.057 26.566) rotate(-90) scale(161.514 68.5684)">
<stop stop-color="#FB8F37"/>
<stop offset="0.39" stop-color="#FCB13E"/>
<stop offset="0.66" stop-color="#FDC442"/>
</radialGradient>
</defs>
</svg>
