<svg width="33" height="73" viewBox="0 0 33 73" fill="none" xmlns="http://www.w3.org/2000/svg">
<path fill-rule="evenodd" clip-rule="evenodd" d="M14.9898 67.1645C15.681 67.8557 16.778 67.8557 17.4693 67.1645L30.002 54.6317C30.6933 53.9404 31.7903 53.9404 32.4816 54.6317C33.1728 55.3229 33.1728 56.4199 32.4816 57.1112L17.5144 72.0784C16.8081 72.7997 15.651 72.7997 14.9297 72.0784L0.518469 57.6672C-0.172786 56.9759 -0.172786 55.879 0.518469 55.1877C1.20972 54.4964 2.30672 54.4964 2.99798 55.1877L14.9898 67.1645ZM14.9898 49.1316C15.681 49.8229 16.778 49.8229 17.4693 49.1316L30.002 36.5988C30.6933 35.9076 31.7903 35.9076 32.4816 36.5988C33.1728 37.2901 33.1728 38.3871 32.4816 39.0783L17.5144 54.0455C16.8081 54.7668 15.651 54.7668 14.9297 54.0455L0.51847 39.6343C-0.172785 38.9431 -0.172785 37.8461 0.51847 37.1548C1.20972 36.4636 2.30672 36.4636 2.99798 37.1548L14.9898 49.1316ZM17.4693 31.0839C16.778 31.7751 15.681 31.7751 14.9898 31.0839L2.99798 19.1071C2.30672 18.4158 1.20972 18.4158 0.518471 19.1071C-0.172788 19.7984 -0.172788 20.8954 0.518471 21.5866L14.9297 35.9978C15.651 36.7191 16.8081 36.7191 17.5144 35.9978L32.4816 21.0306C33.1728 20.3393 33.1728 19.2424 32.4816 18.5511C31.7903 17.8598 30.6933 17.8598 30.002 18.5511L17.4693 31.0839ZM17.4693 13.0512L30.0021 0.518442C30.6934 -0.172814 31.7904 -0.172814 32.4816 0.518442C33.1578 1.2097 33.1578 2.32172 32.4816 2.99795L17.5144 17.9501C16.8081 18.6714 15.651 18.6714 14.9297 17.9501L0.518529 3.55396C-0.172726 2.8627 -0.172726 1.76571 0.518529 1.07445C1.20978 0.383195 2.30678 0.383195 2.99804 1.07445L14.9898 13.0512C15.6811 13.7425 16.7781 13.7425 17.4693 13.0512Z" fill="url(#paint0_linear_24_22182)"/>
<defs>
<linearGradient id="paint0_linear_24_22182" x1="19.43" y1="3.30457" x2="18.1063" y2="71.481" gradientUnits="userSpaceOnUse">
<stop stop-color="#EABB9C"/>
<stop offset="1" stop-color="#FF8029"/>
</linearGradient>
</defs>
</svg>
